<svg width="400" height="401" viewBox="0 0 400 401" fill="none" xmlns="http://www.w3.org/2000/svg">
<path d="M29.6865 226.611H17.5636" stroke="#1A2E35" stroke-width="1.33333" stroke-miterlimit="10" stroke-linecap="round" stroke-linejoin="round"/>
<path d="M381.957 226.611H35.1229" stroke="#1A2E35" stroke-width="1.33333" stroke-miterlimit="10" stroke-linecap="round" stroke-linejoin="round"/>
<path d="M75.7489 144.83C84.1175 144.83 90.9028 138.024 90.9028 129.629C90.9028 121.235 84.1175 114.428 75.7489 114.428C67.3802 114.428 60.5949 121.235 60.5949 129.629C60.5949 138.024 67.3802 144.83 75.7489 144.83ZM48.3083 132.826V126.556L54.2943 125.697C54.85 122.626 56.0405 119.777 57.7325 117.296L54.0923 112.425L58.5117 107.992L63.3504 111.63C65.8144 109.92 68.6458 108.706 71.7031 108.13L72.5622 102.103H78.8125L79.6685 108.108C82.7306 108.665 85.5707 109.86 88.0435 111.557L92.8989 107.904L97.3192 112.338L93.6918 117.191C95.3973 119.663 96.607 122.503 97.1811 125.571L103.189 126.433V132.703L97.2034 133.561C96.6477 136.633 95.4572 139.482 93.7653 141.962L97.4054 146.833L92.986 151.267L88.1481 147.628C85.6833 149.339 82.8519 150.553 79.7946 151.128L78.9355 157.156H72.6852L71.8292 151.151C68.7671 150.593 65.927 149.399 63.4542 147.702L58.5988 151.354L54.1785 146.92L57.8059 142.067C56.1004 139.596 54.8907 136.755 54.3167 133.688L48.3083 132.826Z" stroke="#1A2E35" stroke-width="1.33333" stroke-miterlimit="10"/>
<path d="M50.6068 178.821C56.5912 178.821 61.4435 173.954 61.4435 167.951C61.4435 161.948 56.5912 157.08 50.6068 157.08C44.6224 157.08 39.7701 161.948 39.7701 167.951C39.7701 173.954 44.6224 178.821 50.6068 178.821ZM30.9831 170.237V165.753L35.2644 165.139C35.6613 162.943 36.514 160.905 37.7229 159.131L35.1199 155.648L38.2802 152.477L41.7407 155.08C43.5021 153.856 45.527 152.988 47.7132 152.577L48.328 148.266H52.7978L53.4102 152.561C55.5995 152.96 57.6308 153.813 59.3994 155.027L62.8711 152.416L66.0314 155.586L63.438 159.056C64.658 160.824 65.5236 162.855 65.9332 165.048L70.2305 165.665V170.149L65.9499 170.763C65.5523 172.959 64.7004 174.997 63.4915 176.771L66.0937 180.254L62.9334 183.425L59.4737 180.822C57.7115 182.046 55.6866 182.914 53.5004 183.325L52.8856 187.636H48.4158L47.8034 183.342C45.614 182.943 43.5828 182.089 41.8142 180.875L38.3425 183.487L35.1822 180.316L37.7756 176.846C36.5556 175.078 35.69 173.047 35.2804 170.854L30.9831 170.237Z" stroke="#1A2E35" stroke-width="1.33333" stroke-miterlimit="10"/>
<path d="M321.849 156.198C314.213 156.198 308.022 162.408 308.022 170.069C308.022 177.73 314.213 183.939 321.849 183.939C329.485 183.939 335.677 177.73 335.677 170.069C335.677 162.408 329.485 156.198 321.849 156.198ZM346.889 167.152V172.874L341.426 173.657C340.919 176.46 339.832 179.059 338.289 181.324L341.611 185.767L337.578 189.813L333.163 186.493C330.915 188.055 328.331 189.162 325.541 189.687L324.757 195.187H319.054L318.272 189.707C315.478 189.199 312.886 188.108 310.63 186.561L306.199 189.893L302.167 185.847L305.477 181.419C303.92 179.163 302.816 176.572 302.292 173.772L296.809 172.986V167.264L302.272 166.481C302.779 163.678 303.866 161.079 305.409 158.815L302.087 154.371L306.12 150.325L310.535 153.645C312.783 152.084 315.367 150.976 318.157 150.452L318.941 144.951H324.644L325.426 150.431C328.22 150.94 330.812 152.029 333.068 153.578L337.499 150.246L341.532 154.291L338.221 158.72C339.778 160.975 340.882 163.567 341.406 166.366L346.889 167.152Z" stroke="#1A2E35" stroke-width="1.33333" stroke-miterlimit="10"/>
<path d="M345.724 129.327C341.066 129.327 337.29 133.114 337.29 137.788C337.29 142.461 341.066 146.248 345.724 146.248C350.383 146.248 354.158 142.461 354.158 137.788C354.158 133.114 350.383 129.327 345.724 129.327ZM360.998 136.008V139.499L357.666 139.976C357.356 141.686 356.694 143.272 355.753 144.653L357.779 147.364L355.319 149.832L352.626 147.806C351.254 148.759 349.678 149.434 347.976 149.754L347.498 153.109H344.019L343.542 149.767C341.838 149.456 340.257 148.791 338.881 147.847L336.178 149.88L333.718 147.412L335.737 144.711C334.788 143.335 334.114 141.754 333.795 140.047L330.451 139.567V136.077L333.783 135.599C334.092 133.89 334.755 132.304 335.696 130.923L333.67 128.212L336.13 125.744L338.822 127.77C340.194 126.817 341.77 126.141 343.473 125.822L343.951 122.466H347.43L347.906 125.809C349.61 126.119 351.191 126.784 352.568 127.728L355.271 125.696L357.731 128.163L355.711 130.864C356.661 132.241 357.335 133.822 357.653 135.528L360.998 136.008Z" stroke="#1A2E35" stroke-width="1.33333" stroke-miterlimit="10"/>
<path d="M206.002 63.1487C199.605 63.1487 194.419 68.3509 194.419 74.7681C194.419 81.1853 199.605 86.3867 206.002 86.3867C212.399 86.3867 217.584 81.1853 217.584 74.7681C217.584 68.3509 212.399 63.1487 206.002 63.1487ZM226.978 72.3244V77.1173L222.402 77.7733C221.976 80.1209 221.067 82.2987 219.774 84.1953L222.556 87.9182L219.177 91.307L215.48 88.5261C213.596 89.834 211.432 90.7615 209.094 91.2013L208.437 95.8083H203.66L203.005 91.2181C200.665 90.792 198.494 89.8797 196.603 88.5821L192.893 91.3735L189.515 87.9846L192.287 84.2746C190.983 82.386 190.058 80.2146 189.62 77.8702L185.026 77.211V72.4189L189.602 71.7621C190.027 69.4145 190.937 67.2367 192.23 65.3401L189.448 61.6172L192.827 58.2284L196.524 61.0101C198.408 59.7022 200.572 58.7747 202.909 58.3349L203.566 53.7271H208.344L208.998 58.3173C211.339 58.7434 213.509 59.6565 215.4 60.9533L219.111 58.1619L222.489 61.5508L219.717 65.2608C221.021 67.1502 221.946 69.3216 222.384 71.6652L226.978 72.3244Z" stroke="#1A2E35" stroke-width="1.33333" stroke-miterlimit="10"/>
<path d="M82.2331 231.807H314.617V78.4671C314.617 74.9413 311.768 72.0827 308.253 72.0827H88.5976C85.082 72.0827 82.2331 74.9413 82.2331 78.4671V231.807Z" fill="#1A2E35"/>
<path d="M82.2331 231.807H314.617V78.4671C314.617 74.9413 311.768 72.0827 308.253 72.0827H88.5976C85.082 72.0827 82.2331 74.9413 82.2331 78.4671V231.807Z" stroke="#1A2E35" stroke-width="1.33333" stroke-miterlimit="10" stroke-linecap="round" stroke-linejoin="round"/>
<path d="M47.3755 302.415H349.475L314.617 231.807H82.233L47.3755 302.415Z" fill="white"/>
<path d="M47.3755 302.415H349.475L314.617 231.807H82.233L47.3755 302.415Z" stroke="#1A2E35" stroke-width="1.33333" stroke-miterlimit="10" stroke-linecap="round" stroke-linejoin="round"/>
<path d="M96.3089 219.159H300.541V84.7296H96.3089V219.159Z" fill="#38BFF2" stroke="#1A2E35" stroke-width="1.33333" stroke-miterlimit="10" stroke-linecap="round" stroke-linejoin="round"/>
<path d="M208.119 254.157L207.716 245.553H219.995L220.808 254.157H208.119Z" fill="#1A2E35"/>
<path d="M208.119 254.157L207.716 245.553H219.995L220.808 254.157H208.119Z" stroke="white" stroke-width="1.33333" stroke-miterlimit="10" stroke-linecap="round" stroke-linejoin="round"/>
<path d="M182.74 254.157L183.158 245.553H195.437L195.429 254.157H182.74Z" fill="#1A2E35"/>
<path d="M182.74 254.157L183.158 245.553H195.437L195.429 254.157H182.74Z" stroke="white" stroke-width="1.33333" stroke-miterlimit="10" stroke-linecap="round" stroke-linejoin="round"/>
<path d="M116.651 263.356H103.523L106.604 254.157H119.294L116.651 263.356Z" fill="#1A2E35"/>
<path d="M116.651 263.356H103.523L106.604 254.157H119.294L116.651 263.356Z" stroke="white" stroke-width="1.33333" stroke-miterlimit="10" stroke-linecap="round" stroke-linejoin="round"/>
<path d="M220.808 254.157L219.994 245.553H232.273L233.498 254.157H220.808Z" fill="#1A2E35"/>
<path d="M220.808 254.157L219.994 245.553H232.273L233.498 254.157H220.808Z" stroke="white" stroke-width="1.33333" stroke-miterlimit="10" stroke-linecap="round" stroke-linejoin="round"/>
<path d="M246.186 254.157L244.552 245.553H256.831L258.876 254.157H246.186Z" fill="#1A2E35"/>
<path d="M246.186 254.157L244.552 245.553H256.831L258.876 254.157H246.186Z" stroke="white" stroke-width="1.33333" stroke-miterlimit="10" stroke-linecap="round" stroke-linejoin="round"/>
<path d="M131.982 254.157L134.044 245.553H146.323L144.672 254.157H131.982Z" fill="#1A2E35"/>
<path d="M131.982 254.157L134.044 245.553H146.323L144.672 254.157H131.982Z" stroke="white" stroke-width="1.33333" stroke-miterlimit="10" stroke-linecap="round" stroke-linejoin="round"/>
<path d="M119.294 254.157L121.766 245.553H134.044L131.983 254.157H119.294Z" fill="#1A2E35"/>
<path d="M119.294 254.157L121.766 245.553H134.044L131.983 254.157H119.294Z" stroke="white" stroke-width="1.33333" stroke-miterlimit="10" stroke-linecap="round" stroke-linejoin="round"/>
<path d="M258.876 254.157L256.831 245.553H269.11L271.565 254.157H258.876Z" fill="#1A2E35"/>
<path d="M258.876 254.157L256.831 245.553H269.11L271.565 254.157H258.876Z" stroke="white" stroke-width="1.33333" stroke-miterlimit="10" stroke-linecap="round" stroke-linejoin="round"/>
<path d="M170.051 254.157L170.88 245.553H183.159L182.74 254.157H170.051Z" fill="#1A2E35"/>
<path d="M170.051 254.157L170.88 245.553H183.159L182.74 254.157H170.051Z" stroke="white" stroke-width="1.33333" stroke-miterlimit="10" stroke-linecap="round" stroke-linejoin="round"/>
<path d="M106.604 254.157L109.486 245.553H121.765L119.294 254.157H106.604Z" fill="#1A2E35"/>
<path d="M106.604 254.157L109.486 245.553H121.765L119.294 254.157H106.604Z" stroke="white" stroke-width="1.33333" stroke-miterlimit="10" stroke-linecap="round" stroke-linejoin="round"/>
<path d="M144.672 254.157L146.322 245.553H158.601L157.362 254.157H144.672Z" fill="#1A2E35"/>
<path d="M144.672 254.157L146.322 245.553H158.601L157.362 254.157H144.672Z" stroke="white" stroke-width="1.33333" stroke-miterlimit="10" stroke-linecap="round" stroke-linejoin="round"/>
<path d="M157.362 254.157L158.601 245.553H170.88L170.051 254.157H157.362Z" fill="#1A2E35"/>
<path d="M157.362 254.157L158.601 245.553H170.88L170.051 254.157H157.362Z" stroke="white" stroke-width="1.33333" stroke-miterlimit="10" stroke-linecap="round" stroke-linejoin="round"/>
<path d="M195.429 254.157L195.437 245.553H207.716L208.119 254.157H195.429Z" fill="#1A2E35"/>
<path d="M195.429 254.157L195.437 245.553H207.716L208.119 254.157H195.429Z" stroke="white" stroke-width="1.33333" stroke-miterlimit="10" stroke-linecap="round" stroke-linejoin="round"/>
<path d="M284.255 254.157H296.944L300.447 263.356H287.319L284.255 254.157Z" fill="#1A2E35"/>
<path d="M284.255 254.157H296.944L300.447 263.356H287.319L284.255 254.157Z" stroke="white" stroke-width="1.33333" stroke-miterlimit="10" stroke-linecap="round" stroke-linejoin="round"/>
<path d="M281.388 245.553H293.666L296.943 254.157H284.254L281.388 245.553Z" fill="#1A2E35"/>
<path d="M281.388 245.553H293.666L296.943 254.157H284.254L281.388 245.553Z" stroke="white" stroke-width="1.33333" stroke-miterlimit="10" stroke-linecap="round" stroke-linejoin="round"/>
<path d="M271.565 254.157L269.11 245.553H281.388L284.255 254.157H271.565Z" fill="#1A2E35"/>
<path d="M271.565 254.157L269.11 245.553H281.388L284.255 254.157H271.565Z" stroke="white" stroke-width="1.33333" stroke-miterlimit="10" stroke-linecap="round" stroke-linejoin="round"/>
<path d="M304.202 273.215L308.236 283.807H294.132L290.603 273.215H304.202Z" fill="#1A2E35"/>
<path d="M304.202 273.215L308.236 283.807H294.132L290.603 273.215H304.202Z" stroke="white" stroke-width="1.33333" stroke-miterlimit="10" stroke-linecap="round" stroke-linejoin="round"/>
<path d="M287.319 263.357H300.447L304.203 273.215H290.603L287.319 263.357Z" fill="#1A2E35"/>
<path d="M287.319 263.357H300.447L304.203 273.215H290.603L287.319 263.357Z" stroke="white" stroke-width="1.33333" stroke-miterlimit="10" stroke-linecap="round" stroke-linejoin="round"/>
<path d="M290.603 273.215L294.132 283.807H280.027L277.005 273.215H290.603Z" fill="#1A2E35"/>
<path d="M290.603 273.215L294.132 283.807H280.027L277.005 273.215H290.603Z" stroke="white" stroke-width="1.33333" stroke-miterlimit="10" stroke-linecap="round" stroke-linejoin="round"/>
<path d="M233.497 254.157L232.273 245.553H244.552L246.187 254.157H233.497Z" fill="#1A2E35"/>
<path d="M233.497 254.157L232.273 245.553H244.552L246.187 254.157H233.497Z" stroke="white" stroke-width="1.33333" stroke-miterlimit="10" stroke-linecap="round" stroke-linejoin="round"/>
<path d="M234.806 263.356L233.497 254.157H246.186L247.934 263.356H234.806Z" fill="#1A2E35"/>
<path d="M234.806 263.356L233.497 254.157H246.186L247.934 263.356H234.806Z" stroke="white" stroke-width="1.33333" stroke-miterlimit="10" stroke-linecap="round" stroke-linejoin="round"/>
<path d="M247.934 263.356L246.186 254.157H258.876L261.062 263.356H247.934Z" fill="#1A2E35"/>
<path d="M247.934 263.356L246.186 254.157H258.876L261.062 263.356H247.934Z" stroke="white" stroke-width="1.33333" stroke-miterlimit="10" stroke-linecap="round" stroke-linejoin="round"/>
<path d="M221.677 263.356L220.808 254.157H233.498L234.806 263.356H221.677Z" fill="#1A2E35"/>
<path d="M221.677 263.356L220.808 254.157H233.498L234.806 263.356H221.677Z" stroke="white" stroke-width="1.33333" stroke-miterlimit="10" stroke-linecap="round" stroke-linejoin="round"/>
<path d="M271.565 254.157H284.255L287.319 263.356H274.191L271.565 254.157Z" fill="#1A2E35"/>
<path d="M271.565 254.157H284.255L287.319 263.356H274.191L271.565 254.157Z" stroke="white" stroke-width="1.33333" stroke-miterlimit="10" stroke-linecap="round" stroke-linejoin="round"/>
<path d="M113.819 273.215H100.221L103.522 263.356H116.651L113.819 273.215Z" fill="#1A2E35"/>
<path d="M113.819 273.215H100.221L103.522 263.356H116.651L113.819 273.215Z" stroke="white" stroke-width="1.33333" stroke-miterlimit="10" stroke-linecap="round" stroke-linejoin="round"/>
<path d="M261.063 263.356L258.876 254.157H271.565L274.191 263.356H261.063Z" fill="#1A2E35"/>
<path d="M261.063 263.356L258.876 254.157H271.565L274.191 263.356H261.063Z" stroke="white" stroke-width="1.33333" stroke-miterlimit="10" stroke-linecap="round" stroke-linejoin="round"/>
<path d="M287.319 263.357L290.604 273.215H277.005L274.191 263.357H287.319Z" fill="#1A2E35"/>
<path d="M287.319 263.357L290.604 273.215H277.005L274.191 263.357H287.319Z" stroke="white" stroke-width="1.33333" stroke-miterlimit="10" stroke-linecap="round" stroke-linejoin="round"/>
<path d="M142.907 263.356L144.672 254.157H157.362L156.036 263.356H142.907Z" fill="#1A2E35"/>
<path d="M142.907 263.356L144.672 254.157H157.362L156.036 263.356H142.907Z" stroke="white" stroke-width="1.33333" stroke-miterlimit="10" stroke-linecap="round" stroke-linejoin="round"/>
<path d="M156.036 263.356L157.361 254.157H170.05L169.164 263.356H156.036Z" fill="#1A2E35"/>
<path d="M156.036 263.356L157.361 254.157H170.05L169.164 263.356H156.036Z" stroke="white" stroke-width="1.33333" stroke-miterlimit="10" stroke-linecap="round" stroke-linejoin="round"/>
<path d="M116.651 263.356L119.294 254.157H131.982L129.779 263.356H116.651Z" fill="#1A2E35"/>
<path d="M116.651 263.356L119.294 254.157H131.982L129.779 263.356H116.651Z" stroke="white" stroke-width="1.33333" stroke-miterlimit="10" stroke-linecap="round" stroke-linejoin="round"/>
<path d="M195.421 263.356L195.429 254.157H208.119L208.549 263.356H195.421Z" fill="#1A2E35"/>
<path d="M195.421 263.356L195.429 254.157H208.119L208.549 263.356H195.421Z" stroke="white" stroke-width="1.33333" stroke-miterlimit="10" stroke-linecap="round" stroke-linejoin="round"/>
<path d="M169.164 263.356L170.051 254.157H182.74L182.293 263.356H169.164Z" fill="#1A2E35"/>
<path d="M169.164 263.356L170.051 254.157H182.74L182.293 263.356H169.164Z" stroke="white" stroke-width="1.33333" stroke-miterlimit="10" stroke-linecap="round" stroke-linejoin="round"/>
<path d="M182.292 263.356L182.74 254.157H195.429L195.42 263.356H182.292Z" fill="#1A2E35"/>
<path d="M182.292 263.356L182.74 254.157H195.429L195.42 263.356H182.292Z" stroke="white" stroke-width="1.33333" stroke-miterlimit="10" stroke-linecap="round" stroke-linejoin="round"/>
<path d="M208.549 263.356L208.119 254.157H220.808L221.677 263.356H208.549Z" fill="#1A2E35"/>
<path d="M208.549 263.356L208.119 254.157H220.808L221.677 263.356H208.549Z" stroke="white" stroke-width="1.33333" stroke-miterlimit="10" stroke-linecap="round" stroke-linejoin="round"/>
<path d="M169.164 263.357L168.215 273.215H154.615L156.036 263.357H169.164Z" fill="#1A2E35"/>
<path d="M169.164 263.357L168.215 273.215H154.615L156.036 263.357H169.164Z" stroke="white" stroke-width="1.33333" stroke-miterlimit="10" stroke-linecap="round" stroke-linejoin="round"/>
<path d="M156.036 263.357L154.616 273.215H141.016L142.908 263.357H156.036Z" fill="#1A2E35"/>
<path d="M156.036 263.357L154.616 273.215H141.016L142.908 263.357H156.036Z" stroke="white" stroke-width="1.33333" stroke-miterlimit="10" stroke-linecap="round" stroke-linejoin="round"/>
<path d="M274.191 263.357L277.004 273.215H263.406L261.062 263.357H274.191Z" fill="#1A2E35"/>
<path d="M274.191 263.357L277.004 273.215H263.406L261.062 263.357H274.191Z" stroke="white" stroke-width="1.33333" stroke-miterlimit="10" stroke-linecap="round" stroke-linejoin="round"/>
<path d="M142.907 263.357L141.016 273.215H127.418L129.78 263.357H142.907Z" fill="#1A2E35"/>
<path d="M142.907 263.357L141.016 273.215H127.418L129.78 263.357H142.907Z" stroke="white" stroke-width="1.33333" stroke-miterlimit="10" stroke-linecap="round" stroke-linejoin="round"/>
<path d="M195.421 263.357L195.411 273.215H181.813L182.293 263.357H195.421Z" fill="#1A2E35"/>
<path d="M195.421 263.357L195.411 273.215H181.813L182.293 263.357H195.421Z" stroke="white" stroke-width="1.33333" stroke-miterlimit="10" stroke-linecap="round" stroke-linejoin="round"/>
<path d="M129.78 263.357L127.418 273.215H113.819L116.652 263.357H129.78Z" fill="#1A2E35"/>
<path d="M129.78 263.357L127.418 273.215H113.819L116.652 263.357H129.78Z" stroke="white" stroke-width="1.33333" stroke-miterlimit="10" stroke-linecap="round" stroke-linejoin="round"/>
<path d="M182.292 263.357L181.813 273.215H168.215L169.164 263.357H182.292Z" fill="#1A2E35"/>
<path d="M182.292 263.357L181.813 273.215H168.215L169.164 263.357H182.292Z" stroke="white" stroke-width="1.33333" stroke-miterlimit="10" stroke-linecap="round" stroke-linejoin="round"/>
<path d="M247.934 263.357L249.807 273.215H236.208L234.806 263.357H247.934Z" fill="#1A2E35"/>
<path d="M247.934 263.357L249.807 273.215H236.208L234.806 263.357H247.934Z" stroke="white" stroke-width="1.33333" stroke-miterlimit="10" stroke-linecap="round" stroke-linejoin="round"/>
<path d="M261.062 263.357L263.406 273.215H249.806L247.934 263.357H261.062Z" fill="#1A2E35"/>
<path d="M261.062 263.357L263.406 273.215H249.806L247.934 263.357H261.062Z" stroke="white" stroke-width="1.33333" stroke-miterlimit="10" stroke-linecap="round" stroke-linejoin="round"/>
<path d="M208.549 263.357L209.011 273.215H195.411L195.421 263.357H208.549Z" fill="#1A2E35"/>
<path d="M208.549 263.357L209.011 273.215H195.411L195.421 263.357H208.549Z" stroke="white" stroke-width="1.33333" stroke-miterlimit="10" stroke-linecap="round" stroke-linejoin="round"/>
<path d="M221.677 263.357L222.609 273.215H209.01L208.549 263.357H221.677Z" fill="#1A2E35"/>
<path d="M221.677 263.357L222.609 273.215H209.01L208.549 263.357H221.677Z" stroke="white" stroke-width="1.33333" stroke-miterlimit="10" stroke-linecap="round" stroke-linejoin="round"/>
<path d="M234.806 263.357L236.208 273.215H222.609L221.678 263.357H234.806Z" fill="#1A2E35"/>
<path d="M234.806 263.357L236.208 273.215H222.609L221.678 263.357H234.806Z" stroke="white" stroke-width="1.33333" stroke-miterlimit="10" stroke-linecap="round" stroke-linejoin="round"/>
<path d="M129.78 263.356L131.983 254.157H144.672L142.907 263.356H129.78Z" fill="#1A2E35"/>
<path d="M129.78 263.356L131.983 254.157H144.672L142.907 263.356H129.78Z" stroke="white" stroke-width="1.33333" stroke-miterlimit="10" stroke-linecap="round" stroke-linejoin="round"/>
<path d="M281.388 245.553L278.454 236.747H290.312L293.667 245.553H281.388Z" fill="#1A2E35"/>
<path d="M281.388 245.553L278.454 236.747H290.312L293.667 245.553H281.388Z" stroke="white" stroke-width="1.33333" stroke-miterlimit="10" stroke-linecap="round" stroke-linejoin="round"/>
<path d="M293.666 245.553H305.001L308.657 254.157H296.943L293.666 245.553Z" fill="#1A2E35"/>
<path d="M293.666 245.553H305.001L308.657 254.157H296.943L293.666 245.553Z" stroke="white" stroke-width="1.33333" stroke-miterlimit="10" stroke-linecap="round" stroke-linejoin="round"/>
<path d="M290.313 236.747H301.259L305.001 245.553H293.667L290.313 236.747Z" fill="#1A2E35"/>
<path d="M290.313 236.747H301.259L305.001 245.553H293.667L290.313 236.747Z" stroke="white" stroke-width="1.33333" stroke-miterlimit="10" stroke-linecap="round" stroke-linejoin="round"/>
<path d="M296.943 254.157H308.657L312.566 263.356H300.447L296.943 254.157Z" fill="#1A2E35"/>
<path d="M296.943 254.157H308.657L312.566 263.356H300.447L296.943 254.157Z" stroke="white" stroke-width="1.33333" stroke-miterlimit="10" stroke-linecap="round" stroke-linejoin="round"/>
<path d="M300.447 263.357H312.566L316.755 273.215H304.202L300.447 263.357Z" fill="#1A2E35"/>
<path d="M300.447 263.357H312.566L316.755 273.215H304.202L300.447 263.357Z" stroke="white" stroke-width="1.33333" stroke-miterlimit="10" stroke-linecap="round" stroke-linejoin="round"/>
<path d="M304.202 273.215H316.755L321.256 283.807H308.236L304.202 273.215Z" fill="#1A2E35"/>
<path d="M304.202 273.215H316.755L321.256 283.807H308.236L304.202 273.215Z" stroke="white" stroke-width="1.33333" stroke-miterlimit="10" stroke-linecap="round" stroke-linejoin="round"/>
<path d="M93.9155 254.157L90.3943 263.356H78.7807L82.69 254.157H93.9155Z" fill="#1A2E35"/>
<path d="M93.9155 254.157L90.3943 263.356H78.7807L82.69 254.157H93.9155Z" stroke="white" stroke-width="1.33333" stroke-miterlimit="10" stroke-linecap="round" stroke-linejoin="round"/>
<path d="M86.6218 273.215H74.5923L78.781 263.356H90.3945L86.6218 273.215Z" fill="#1A2E35"/>
<path d="M86.6218 273.215H74.5923L78.781 263.356H90.3945L86.6218 273.215Z" stroke="white" stroke-width="1.33333" stroke-miterlimit="10" stroke-linecap="round" stroke-linejoin="round"/>
<path d="M82.5678 283.807H70.0911L74.592 273.215H86.6216L82.5678 283.807Z" fill="#1A2E35"/>
<path d="M82.5678 283.807H70.0911L74.592 273.215H86.6216L82.5678 283.807Z" stroke="white" stroke-width="1.33333" stroke-miterlimit="10" stroke-linecap="round" stroke-linejoin="round"/>
<path d="M183.159 245.553L183.587 236.747H195.445L195.437 245.553H183.159Z" fill="#1A2E35"/>
<path d="M183.159 245.553L183.587 236.747H195.445L195.437 245.553H183.159Z" stroke="white" stroke-width="1.33333" stroke-miterlimit="10" stroke-linecap="round" stroke-linejoin="round"/>
<path d="M93.9155 254.157H82.6899L86.346 245.553H97.2075L93.9155 254.157Z" fill="#1A2E35"/>
<path d="M93.9155 254.157H82.6899L86.346 245.553H97.2075L93.9155 254.157Z" stroke="white" stroke-width="1.33333" stroke-miterlimit="10" stroke-linecap="round" stroke-linejoin="round"/>
<path d="M100.22 273.215H86.6215L90.3934 263.356H103.522L100.22 273.215Z" fill="#1A2E35"/>
<path d="M100.22 273.215H86.6215L90.3934 263.356H103.522L100.22 273.215Z" stroke="white" stroke-width="1.33333" stroke-miterlimit="10" stroke-linecap="round" stroke-linejoin="round"/>
<path d="M269.109 245.553L266.596 236.747H278.454L281.387 245.553H269.109Z" fill="#1A2E35"/>
<path d="M269.109 245.553L266.596 236.747H278.454L281.387 245.553H269.109Z" stroke="white" stroke-width="1.33333" stroke-miterlimit="10" stroke-linecap="round" stroke-linejoin="round"/>
<path d="M109.487 245.553L106.604 254.157H93.9152L97.2073 245.553H109.487Z" fill="#1A2E35"/>
<path d="M109.487 245.553L106.604 254.157H93.9152L97.2073 245.553H109.487Z" stroke="white" stroke-width="1.33333" stroke-miterlimit="10" stroke-linecap="round" stroke-linejoin="round"/>
<path d="M86.3456 245.553L90.0879 236.747H100.578L97.2078 245.553H86.3456Z" fill="#1A2E35"/>
<path d="M86.3456 245.553L90.0879 236.747H100.578L97.2078 245.553H86.3456Z" stroke="white" stroke-width="1.33333" stroke-miterlimit="10" stroke-linecap="round" stroke-linejoin="round"/>
<path d="M97.2076 245.553L100.579 236.747H112.437L109.487 245.553H97.2076Z" fill="#1A2E35"/>
<path d="M97.2076 245.553L100.579 236.747H112.437L109.487 245.553H97.2076Z" stroke="white" stroke-width="1.33333" stroke-miterlimit="10" stroke-linecap="round" stroke-linejoin="round"/>
<path d="M141.017 273.215L138.985 283.807H124.881L127.418 273.215H141.017Z" fill="#1A2E35"/>
<path d="M141.017 273.215L138.985 283.807H124.881L127.418 273.215H141.017Z" stroke="white" stroke-width="1.33333" stroke-miterlimit="10" stroke-linecap="round" stroke-linejoin="round"/>
<path d="M96.6727 283.807H82.568L86.6217 273.215H100.22L96.6727 283.807Z" fill="#1A2E35"/>
<path d="M96.6727 283.807H82.568L86.6217 273.215H100.22L96.6727 283.807Z" stroke="white" stroke-width="1.33333" stroke-miterlimit="10" stroke-linecap="round" stroke-linejoin="round"/>
<path d="M109.487 245.553L112.436 236.747H124.295L121.765 245.553H109.487Z" fill="#1A2E35"/>
<path d="M109.487 245.553L112.436 236.747H124.295L121.765 245.553H109.487Z" stroke="white" stroke-width="1.33333" stroke-miterlimit="10" stroke-linecap="round" stroke-linejoin="round"/>
<path d="M113.819 273.215L110.776 283.807H96.6724L100.221 273.215H113.819Z" fill="#1A2E35"/>
<path d="M113.819 273.215L110.776 283.807H96.6724L100.221 273.215H113.819Z" stroke="white" stroke-width="1.33333" stroke-miterlimit="10" stroke-linecap="round" stroke-linejoin="round"/>
<path d="M127.418 273.215L124.88 283.807H110.776L113.819 273.215H127.418Z" fill="#1A2E35"/>
<path d="M127.418 273.215L124.88 283.807H110.776L113.819 273.215H127.418Z" stroke="white" stroke-width="1.33333" stroke-miterlimit="10" stroke-linecap="round" stroke-linejoin="round"/>
<path d="M103.523 263.356H90.3945L93.9157 254.157H106.604L103.523 263.356Z" fill="#1A2E35"/>
<path d="M103.523 263.356H90.3945L93.9157 254.157H106.604L103.523 263.356Z" stroke="white" stroke-width="1.33333" stroke-miterlimit="10" stroke-linecap="round" stroke-linejoin="round"/>
<path d="M219.995 245.553L219.163 236.747H231.021L232.273 245.553H219.995Z" fill="#1A2E35"/>
<path d="M219.995 245.553L219.163 236.747H231.021L232.273 245.553H219.995Z" stroke="white" stroke-width="1.33333" stroke-miterlimit="10" stroke-linecap="round" stroke-linejoin="round"/>
<path d="M121.766 245.553L124.295 236.747H136.154L134.044 245.553H121.766Z" fill="#1A2E35"/>
<path d="M121.766 245.553L124.295 236.747H136.154L134.044 245.553H121.766Z" stroke="white" stroke-width="1.33333" stroke-miterlimit="10" stroke-linecap="round" stroke-linejoin="round"/>
<path d="M232.273 245.553L231.02 236.747H242.879L244.552 245.553H232.273Z" fill="#1A2E35"/>
<path d="M232.273 245.553L231.02 236.747H242.879L244.552 245.553H232.273Z" stroke="white" stroke-width="1.33333" stroke-miterlimit="10" stroke-linecap="round" stroke-linejoin="round"/>
<path d="M195.437 245.553L195.445 236.747H207.303L207.716 245.553H195.437Z" fill="#1A2E35"/>
<path d="M195.437 245.553L195.445 236.747H207.303L207.716 245.553H195.437Z" stroke="white" stroke-width="1.33333" stroke-miterlimit="10" stroke-linecap="round" stroke-linejoin="round"/>
<path d="M244.552 245.553L242.879 236.747H254.737L256.831 245.553H244.552Z" fill="#1A2E35"/>
<path d="M244.552 245.553L242.879 236.747H254.737L256.831 245.553H244.552Z" stroke="white" stroke-width="1.33333" stroke-miterlimit="10" stroke-linecap="round" stroke-linejoin="round"/>
<path d="M256.831 245.553L254.737 236.747H266.596L269.109 245.553H256.831Z" fill="#1A2E35"/>
<path d="M256.831 245.553L254.737 236.747H266.596L269.109 245.553H256.831Z" stroke="white" stroke-width="1.33333" stroke-miterlimit="10" stroke-linecap="round" stroke-linejoin="round"/>
<path d="M207.716 245.553L207.303 236.747H219.162L219.995 245.553H207.716Z" fill="#1A2E35"/>
<path d="M207.716 245.553L207.303 236.747H219.162L219.995 245.553H207.716Z" stroke="white" stroke-width="1.33333" stroke-miterlimit="10" stroke-linecap="round" stroke-linejoin="round"/>
<path d="M134.044 245.553L136.154 236.747H148.012L146.323 245.553H134.044Z" fill="#1A2E35"/>
<path d="M134.044 245.553L136.154 236.747H148.012L146.323 245.553H134.044Z" stroke="white" stroke-width="1.33333" stroke-miterlimit="10" stroke-linecap="round" stroke-linejoin="round"/>
<path d="M146.323 245.553L148.011 236.747H159.87L158.601 245.553H146.323Z" fill="#1A2E35"/>
<path d="M146.323 245.553L148.011 236.747H159.87L158.601 245.553H146.323Z" stroke="white" stroke-width="1.33333" stroke-miterlimit="10" stroke-linecap="round" stroke-linejoin="round"/>
<path d="M170.88 245.553L171.729 236.747H183.587L183.159 245.553H170.88Z" fill="#1A2E35"/>
<path d="M170.88 245.553L171.729 236.747H183.587L183.159 245.553H170.88Z" stroke="white" stroke-width="1.33333" stroke-miterlimit="10" stroke-linecap="round" stroke-linejoin="round"/>
<path d="M141.017 273.215H154.615H168.214H181.813H195.411H209.011H222.609H236.208H249.806H263.406H277.004L280.027 283.807H265.924H251.819H237.715H223.611H209.506H195.402H181.298H167.193H153.089H138.984L141.017 273.215Z" fill="#1A2E35"/>
<path d="M141.017 273.215H154.615H168.214H181.813H195.412H209.011H222.609H236.208H249.806H263.406H277.004L280.027 283.807H265.924H251.819H237.715H223.611H209.506H195.402H181.298H167.193H153.089H138.984L141.017 273.215Z" stroke="white" stroke-width="1.33333" stroke-miterlimit="10" stroke-linecap="round" stroke-linejoin="round"/>
<path d="M158.601 245.553L159.87 236.747H171.729L170.88 245.553H158.601Z" fill="#1A2E35"/>
<path d="M158.601 245.553L159.87 236.747H171.729L170.88 245.553H158.601Z" stroke="white" stroke-width="1.33333" stroke-miterlimit="10" stroke-linecap="round" stroke-linejoin="round"/>
<path d="M47.2382 306.716H349.475V302.414H47.2382V306.716Z" fill="#1A2E35" stroke="#1A2E35" stroke-width="1.33333" stroke-miterlimit="10" stroke-linecap="round" stroke-linejoin="round"/>
<path d="M287.374 95.3311H274.207" stroke="#1A2E35" stroke-width="4" stroke-miterlimit="10" stroke-linecap="round" stroke-linejoin="round"/>
<path d="M287.374 102.113H237.909" stroke="white" stroke-width="4" stroke-miterlimit="10" stroke-linecap="round" stroke-linejoin="round"/>
<path d="M210.863 102.113H161.399" stroke="white" stroke-width="4" stroke-miterlimit="10" stroke-linecap="round" stroke-linejoin="round"/>
<path d="M234.706 102.113H215.133" stroke="#1A2E35" stroke-width="4" stroke-miterlimit="10" stroke-linecap="round" stroke-linejoin="round"/>
<path d="M287.374 108.896H258.905" stroke="#1A2E35" stroke-width="4" stroke-miterlimit="10" stroke-linecap="round" stroke-linejoin="round"/>
<path d="M255.346 108.896H226.877" stroke="#1A2E35" stroke-width="4" stroke-miterlimit="10" stroke-linecap="round" stroke-linejoin="round"/>
<path d="M223.319 108.896H194.85" stroke="#1A2E35" stroke-width="4" stroke-miterlimit="10" stroke-linecap="round" stroke-linejoin="round"/>
<path d="M191.291 108.896H179.192" stroke="#1A2E35" stroke-width="4" stroke-miterlimit="10" stroke-linecap="round" stroke-linejoin="round"/>
<path d="M270.648 95.3311H257.481" stroke="#1A2E35" stroke-width="4" stroke-miterlimit="10" stroke-linecap="round" stroke-linejoin="round"/>
<path d="M192.358 95.3311H179.192" stroke="#1A2E35" stroke-width="4" stroke-miterlimit="10" stroke-linecap="round" stroke-linejoin="round"/>
<path d="M209.796 95.3311H196.629" stroke="white" stroke-width="4" stroke-miterlimit="10" stroke-linecap="round" stroke-linejoin="round"/>
<path d="M253.923 95.3311H215.49" stroke="#1A2E35" stroke-width="4" stroke-miterlimit="10" stroke-linecap="round" stroke-linejoin="round"/>
<path d="M287.374 136.74H274.207" stroke="#1A2E35" stroke-width="4" stroke-miterlimit="10" stroke-linecap="round" stroke-linejoin="round"/>
<path d="M287.374 143.522H237.909" stroke="white" stroke-width="4" stroke-miterlimit="10" stroke-linecap="round" stroke-linejoin="round"/>
<path d="M210.863 143.522H161.399" stroke="#1A2E35" stroke-width="4" stroke-miterlimit="10" stroke-linecap="round" stroke-linejoin="round"/>
<path d="M234.706 143.522H215.133" stroke="#1A2E35" stroke-width="4" stroke-miterlimit="10" stroke-linecap="round" stroke-linejoin="round"/>
<path d="M287.374 150.305H258.905" stroke="#1A2E35" stroke-width="4" stroke-miterlimit="10" stroke-linecap="round" stroke-linejoin="round"/>
<path d="M255.346 150.305H226.877" stroke="#1A2E35" stroke-width="4" stroke-miterlimit="10" stroke-linecap="round" stroke-linejoin="round"/>
<path d="M223.319 150.305H194.85" stroke="white" stroke-width="4" stroke-miterlimit="10" stroke-linecap="round" stroke-linejoin="round"/>
<path d="M191.291 150.305H179.192" stroke="#1A2E35" stroke-width="4" stroke-miterlimit="10" stroke-linecap="round" stroke-linejoin="round"/>
<path d="M270.648 136.74H257.481" stroke="#1A2E35" stroke-width="4" stroke-miterlimit="10" stroke-linecap="round" stroke-linejoin="round"/>
<path d="M192.358 136.74H179.192" stroke="#1A2E35" stroke-width="4" stroke-miterlimit="10" stroke-linecap="round" stroke-linejoin="round"/>
<path d="M209.796 136.74H196.629" stroke="white" stroke-width="4" stroke-miterlimit="10" stroke-linecap="round" stroke-linejoin="round"/>
<path d="M253.923 136.74H215.49" stroke="#1A2E35" stroke-width="4" stroke-miterlimit="10" stroke-linecap="round" stroke-linejoin="round"/>
<path d="M287.374 197.782H274.207" stroke="#1A2E35" stroke-width="4" stroke-miterlimit="10" stroke-linecap="round" stroke-linejoin="round"/>
<path d="M287.374 204.565H237.909" stroke="white" stroke-width="4" stroke-miterlimit="10" stroke-linecap="round" stroke-linejoin="round"/>
<path d="M210.863 204.565H161.399" stroke="#1A2E35" stroke-width="4" stroke-miterlimit="10" stroke-linecap="round" stroke-linejoin="round"/>
<path d="M234.706 204.565H215.133" stroke="#1A2E35" stroke-width="4" stroke-miterlimit="10" stroke-linecap="round" stroke-linejoin="round"/>
<path d="M287.374 211.348H258.905" stroke="#1A2E35" stroke-width="4" stroke-miterlimit="10" stroke-linecap="round" stroke-linejoin="round"/>
<path d="M255.346 211.348H226.877" stroke="#1A2E35" stroke-width="4" stroke-miterlimit="10" stroke-linecap="round" stroke-linejoin="round"/>
<path d="M223.319 211.348H194.85" stroke="white" stroke-width="4" stroke-miterlimit="10" stroke-linecap="round" stroke-linejoin="round"/>
<path d="M191.291 211.348H179.192" stroke="#1A2E35" stroke-width="4" stroke-miterlimit="10" stroke-linecap="round" stroke-linejoin="round"/>
<path d="M270.648 197.782H257.481" stroke="#1A2E35" stroke-width="4" stroke-miterlimit="10" stroke-linecap="round" stroke-linejoin="round"/>
<path d="M192.358 197.782H179.192" stroke="#1A2E35" stroke-width="4" stroke-miterlimit="10" stroke-linecap="round" stroke-linejoin="round"/>
<path d="M209.796 197.782H196.629" stroke="white" stroke-width="4" stroke-miterlimit="10" stroke-linecap="round" stroke-linejoin="round"/>
<path d="M253.923 197.782H215.49" stroke="#1A2E35" stroke-width="4" stroke-miterlimit="10" stroke-linecap="round" stroke-linejoin="round"/>
<path d="M213.354 116.035H200.188" stroke="#1A2E35" stroke-width="4" stroke-miterlimit="10" stroke-linecap="round" stroke-linejoin="round"/>
<path d="M230.792 116.035H217.625" stroke="#1A2E35" stroke-width="4" stroke-miterlimit="10" stroke-linecap="round" stroke-linejoin="round"/>
<path d="M274.918 116.035H236.485" stroke="#1A2E35" stroke-width="4" stroke-miterlimit="10" stroke-linecap="round" stroke-linejoin="round"/>
<path d="M213.354 128.172H200.188" stroke="#1A2E35" stroke-width="4" stroke-miterlimit="10" stroke-linecap="round" stroke-linejoin="round"/>
<path d="M230.792 128.172H217.625" stroke="#1A2E35" stroke-width="4" stroke-miterlimit="10" stroke-linecap="round" stroke-linejoin="round"/>
<path d="M274.918 128.172H236.485" stroke="white" stroke-width="4" stroke-miterlimit="10" stroke-linecap="round" stroke-linejoin="round"/>
<path d="M261.751 122.104H274.918" stroke="#1A2E35" stroke-width="4" stroke-miterlimit="10" stroke-linecap="round" stroke-linejoin="round"/>
<path d="M244.314 122.104H257.481" stroke="#1A2E35" stroke-width="4" stroke-miterlimit="10" stroke-linecap="round" stroke-linejoin="round"/>
<path d="M200.188 122.104H238.621" stroke="white" stroke-width="4" stroke-miterlimit="10" stroke-linecap="round" stroke-linejoin="round"/>
<path d="M213.354 158.515H200.188" stroke="#1A2E35" stroke-width="4" stroke-miterlimit="10" stroke-linecap="round" stroke-linejoin="round"/>
<path d="M230.792 158.515H217.625" stroke="#1A2E35" stroke-width="4" stroke-miterlimit="10" stroke-linecap="round" stroke-linejoin="round"/>
<path d="M274.918 158.515H236.485" stroke="#1A2E35" stroke-width="4" stroke-miterlimit="10" stroke-linecap="round" stroke-linejoin="round"/>
<path d="M213.354 170.652H200.188" stroke="#1A2E35" stroke-width="4" stroke-miterlimit="10" stroke-linecap="round" stroke-linejoin="round"/>
<path d="M230.792 170.652H217.625" stroke="#1A2E35" stroke-width="4" stroke-miterlimit="10" stroke-linecap="round" stroke-linejoin="round"/>
<path d="M274.918 170.652H236.485" stroke="white" stroke-width="4" stroke-miterlimit="10" stroke-linecap="round" stroke-linejoin="round"/>
<path d="M261.751 164.584H274.918" stroke="#1A2E35" stroke-width="4" stroke-miterlimit="10" stroke-linecap="round" stroke-linejoin="round"/>
<path d="M244.314 164.584H257.481" stroke="#1A2E35" stroke-width="4" stroke-miterlimit="10" stroke-linecap="round" stroke-linejoin="round"/>
<path d="M200.188 164.584H238.621" stroke="white" stroke-width="4" stroke-miterlimit="10" stroke-linecap="round" stroke-linejoin="round"/>
<path d="M261.751 177.792H274.918" stroke="#1A2E35" stroke-width="4" stroke-miterlimit="10" stroke-linecap="round" stroke-linejoin="round"/>
<path d="M244.314 177.792H257.481" stroke="#1A2E35" stroke-width="4" stroke-miterlimit="10" stroke-linecap="round" stroke-linejoin="round"/>
<path d="M200.188 177.792H238.621" stroke="white" stroke-width="4" stroke-miterlimit="10" stroke-linecap="round" stroke-linejoin="round"/>
<path d="M261.751 189.929H274.918" stroke="#1A2E35" stroke-width="4" stroke-miterlimit="10" stroke-linecap="round" stroke-linejoin="round"/>
<path d="M244.314 189.929H257.481" stroke="#1A2E35" stroke-width="4" stroke-miterlimit="10" stroke-linecap="round" stroke-linejoin="round"/>
<path d="M200.188 189.929H238.621" stroke="white" stroke-width="4" stroke-miterlimit="10" stroke-linecap="round" stroke-linejoin="round"/>
<path d="M213.354 183.86H200.188" stroke="#1A2E35" stroke-width="4" stroke-miterlimit="10" stroke-linecap="round" stroke-linejoin="round"/>
<path d="M230.792 183.86H217.625" stroke="#1A2E35" stroke-width="4" stroke-miterlimit="10" stroke-linecap="round" stroke-linejoin="round"/>
<path d="M274.918 183.86H236.485" stroke="white" stroke-width="4" stroke-miterlimit="10" stroke-linecap="round" stroke-linejoin="round"/>
<path d="M292.258 97.1404H296.461V92.9755H292.258V97.1404Z" fill="#1A2E35"/>
<path d="M292.258 103.984H296.461V99.8188H292.258V103.984Z" fill="#1A2E35"/>
<path d="M292.258 110.826H296.461V106.661H292.258V110.826Z" fill="#1A2E35"/>
<path d="M292.258 117.669H296.461V113.504H292.258V117.669Z" fill="#1A2E35"/>
<path d="M292.258 124.511H296.461V120.347H292.258V124.511Z" fill="#1A2E35"/>
<path d="M292.258 131.354H296.461V127.189H292.258V131.354Z" fill="#1A2E35"/>
<path d="M292.258 138.197H296.461V134.032H292.258V138.197Z" fill="#1A2E35"/>
<path d="M292.258 145.039H296.461V140.874H292.258V145.039Z" fill="#1A2E35"/>
<path d="M292.258 151.882H296.461V147.717H292.258V151.882Z" fill="#1A2E35"/>
<path d="M292.258 158.725H296.461V154.56H292.258V158.725Z" fill="#1A2E35"/>
<path d="M292.258 165.568H296.461V161.403H292.258V165.568Z" fill="#1A2E35"/>
<path d="M292.258 172.41H296.461V168.245H292.258V172.41Z" fill="#1A2E35"/>
<path d="M292.258 179.253H296.461V175.088H292.258V179.253Z" fill="#1A2E35"/>
<path d="M292.258 186.096H296.461V181.931H292.258V186.096Z" fill="#1A2E35"/>
<path d="M292.258 192.938H296.461V188.774H292.258V192.938Z" fill="#1A2E35"/>
<path d="M292.258 199.781H296.461V195.616H292.258V199.781Z" fill="#1A2E35"/>
<path d="M292.258 206.624H296.461V202.459H292.258V206.624Z" fill="#1A2E35"/>
<path d="M292.258 213.467H296.461V209.302H292.258V213.467Z" fill="#1A2E35"/>
<path d="M96.5553 18.1508C121.776 18.1508 142.221 38.6601 142.221 63.959C142.221 76.9753 136.801 88.7141 128.111 97.0536L134.61 109.223L118.672 104.037C112.119 107.685 104.581 109.768 96.5553 109.768C71.3344 109.768 50.889 89.2587 50.889 63.959C50.889 38.6601 71.3344 18.1508 96.5553 18.1508Z" fill="#1A2E35"/>
<path d="M96.5553 18.1508C121.776 18.1508 142.221 38.6601 142.221 63.959C142.221 76.9753 136.801 88.7141 128.111 97.0536L134.61 109.223L118.672 104.037C112.119 107.685 104.581 109.768 96.5553 109.768C71.3344 109.768 50.889 89.2587 50.889 63.959C50.889 38.6601 71.3344 18.1508 96.5553 18.1508Z" stroke="#1A2E35" stroke-width="1.33333" stroke-miterlimit="10" stroke-linecap="round" stroke-linejoin="round"/>
<path d="M98.73 14.8786C123.95 14.8786 144.396 35.3879 144.396 60.6876C144.396 73.7031 138.975 85.4419 130.286 93.7814L136.785 105.951L120.847 100.766C114.293 104.412 106.755 106.497 98.73 106.497C73.5091 106.497 53.0638 85.9873 53.0638 60.6876C53.0638 35.3879 73.5091 14.8786 98.73 14.8786Z" fill="white"/>
<path d="M98.73 14.8786C123.95 14.8786 144.396 35.3879 144.396 60.6876C144.396 73.7031 138.975 85.4419 130.286 93.7814L136.785 105.951L120.847 100.766C114.293 104.412 106.755 106.497 98.73 106.497C73.5091 106.497 53.0638 85.9873 53.0638 60.6876C53.0638 35.3879 73.5091 14.8786 98.73 14.8786Z" stroke="#1A2E35" stroke-width="1.33333" stroke-miterlimit="10" stroke-linecap="round" stroke-linejoin="round"/>
<path d="M114.022 79.5658L131.569 67.1334V60.5472L114.022 47.9914V54.6385L126.6 63.8094L114.022 72.9804V79.5658Z" fill="#38BFF2"/>
<path d="M108.684 81.7817L95.3084 31.928H89.6026L103.039 81.7817H108.684Z" fill="#38BFF2"/>
<path d="M84.2651 79.5658V72.9804L71.6248 63.7478L84.2651 54.6385V47.9914L66.6544 60.4863V67.0709L84.2651 79.5658Z" fill="#38BFF2"/>
<path d="M111.847 76.8392L129.395 64.4068V57.8205L111.847 45.2648V51.9119L124.425 61.0828L111.847 70.2537V76.8392Z" fill="#1A2E35"/>
<path d="M106.51 79.0551L93.134 29.2013H87.4283L100.865 79.0551H106.51Z" fill="#1A2E35"/>
<path d="M82.0903 76.8392V70.2537L69.4508 61.0211L82.0903 51.9119V45.2648L64.4804 57.7597V64.3443L82.0903 76.8392Z" fill="#1A2E35"/>
<path d="M133.447 307.189L105.797 330.087C105.797 330.087 104.166 334.45 100.361 339.358C96.5553 344.265 51.9765 362.807 51.9765 362.807L44.3656 364.988L127.543 302.274L133.447 307.189Z" fill="#1A2E35"/>
<path d="M133.447 307.189L105.797 330.087C105.797 330.087 104.166 334.45 100.361 339.358C96.5553 344.265 51.9765 362.807 51.9765 362.807L44.3656 364.988L127.543 302.274L133.447 307.189Z" stroke="#1A2E35" stroke-width="1.33333" stroke-miterlimit="10" stroke-linecap="round" stroke-linejoin="round"/>
<path d="M79.5982 289C79.5982 289 87.0158 279.906 90.3127 274.117C93.6103 268.329 98.2805 254.825 101.852 246.833C105.424 238.841 110.644 236.36 116.963 233.88C123.282 231.399 125.755 231.95 125.755 233.604C125.755 235.257 123.282 238.289 123.282 238.289L133.997 240.218C133.997 240.218 138.393 237.738 141.14 238.564C143.888 239.391 149.108 244.628 149.108 244.628C149.108 244.628 154.603 242.699 157.9 243.526C161.197 244.353 170.263 248.762 174.109 250.692C177.956 252.62 182.077 252.897 181.802 254.55C181.528 256.204 177.681 258.959 174.109 258.409C170.538 257.857 164.493 255.652 160.647 255.652C156.8 255.652 154.878 256.478 152.954 257.857C151.031 259.235 143.064 270.534 141.964 271.913C140.865 273.291 139.766 278.803 139.766 278.803C139.766 278.803 144.611 276.726 147.633 273.97C150.655 271.214 154.979 264.751 159.925 264.199C164.87 263.648 170.263 268.055 167.516 270.26C164.768 272.463 162.021 273.842 160.097 276.322C158.174 278.803 155.152 286.244 149.932 294.236C144.712 302.229 133.447 307.189 133.447 307.189L110.094 316.836C110.094 316.836 104.05 302.504 92.7863 298.646C81.5209 294.788 78.224 293.134 78.224 293.134L79.5982 289Z" fill="white"/>
<path d="M79.5982 289C79.5982 289 87.0158 279.906 90.3127 274.117C93.6103 268.329 98.2805 254.825 101.852 246.833C105.424 238.841 110.644 236.36 116.963 233.88C123.282 231.399 125.755 231.95 125.755 233.604C125.755 235.257 123.282 238.289 123.282 238.289L133.997 240.218C133.997 240.218 138.393 237.738 141.14 238.564C143.888 239.391 149.108 244.628 149.108 244.628C149.108 244.628 154.603 242.699 157.9 243.526C161.197 244.353 170.263 248.762 174.109 250.692C177.956 252.62 182.077 252.897 181.802 254.55C181.528 256.204 177.681 258.959 174.109 258.409C170.538 257.857 164.493 255.652 160.647 255.652C156.8 255.652 154.878 256.478 152.954 257.857C151.031 259.235 143.064 270.534 141.964 271.913C140.865 273.291 139.766 278.803 139.766 278.803C139.766 278.803 144.611 276.726 147.633 273.97C150.655 271.214 154.979 264.751 159.925 264.199C164.87 263.648 170.263 268.055 167.516 270.26C164.768 272.463 162.021 273.842 160.097 276.322C158.174 278.803 155.152 286.244 149.932 294.236C144.712 302.229 133.447 307.189 133.447 307.189L110.094 316.836C110.094 316.836 104.05 302.504 92.7863 298.646C81.5208 294.788 78.224 293.134 78.224 293.134L79.5982 289Z" stroke="#1A2E35" stroke-width="1.33333" stroke-miterlimit="10" stroke-linecap="round" stroke-linejoin="round"/>
<path d="M181.802 254.55C181.802 254.55 179.123 253.866 178.351 253.607C177.58 253.349 176.68 252.576 176.68 252.576" stroke="#1A2E35" stroke-width="1.33333" stroke-miterlimit="10" stroke-linecap="round" stroke-linejoin="round"/>
<path d="M149.108 244.628C149.108 244.628 136.452 251.728 132.882 253.657C131.413 254.451 127.934 256.083 126.861 259.696C125.593 263.968 123.029 266.285 123.029 266.285" stroke="#1A2E35" stroke-width="1.33333" stroke-miterlimit="10" stroke-linecap="round" stroke-linejoin="round"/>
<path d="M133.997 240.218C133.997 240.218 121.634 249.865 120.809 250.14C119.985 250.415 116.963 250.691 115.589 253.172C114.216 255.652 112.842 258.408 112.842 258.408" stroke="#1A2E35" stroke-width="1.33333" stroke-miterlimit="10" stroke-linecap="round" stroke-linejoin="round"/>
<path d="M123.282 238.289C123.282 238.289 118.886 237.463 117.238 240.77C115.589 244.077 108.446 252.069 108.446 252.069" stroke="#1A2E35" stroke-width="1.33333" stroke-miterlimit="10" stroke-linecap="round" stroke-linejoin="round"/>
<path d="M162.57 273.842C162.57 273.842 159.274 272.189 160.922 269.708C162.57 267.227 165.867 267.227 165.867 267.227" stroke="#1A2E35" stroke-width="1.33333" stroke-miterlimit="10" stroke-linecap="round" stroke-linejoin="round"/>
<path d="M80.148 285.417C80.148 285.417 94.9833 289.275 104.325 299.749C113.666 310.221 113.666 319.04 112.842 320.418C112.018 321.797 94.1593 331.442 94.1593 331.442C94.1593 331.442 83.1694 310.221 75.477 304.985C67.7847 299.749 62.2897 298.37 62.2897 298.37C62.2897 298.37 76.0264 289.551 76.5757 288.449C77.1258 287.346 78.2245 284.591 80.148 285.417Z" fill="#38BFF2"/>
<path d="M80.148 285.417C80.148 285.417 94.9833 289.275 104.325 299.749C113.666 310.221 113.666 319.04 112.842 320.418C112.018 321.797 94.1593 331.442 94.1593 331.442C94.1593 331.442 83.1694 310.221 75.477 304.985C67.7847 299.749 62.2897 298.37 62.2897 298.37C62.2897 298.37 76.0264 289.551 76.5757 288.449C77.1258 287.346 78.2245 284.591 80.148 285.417Z" stroke="#1A2E35" stroke-width="1.33333" stroke-miterlimit="10" stroke-linecap="round" stroke-linejoin="round"/>
<path d="M38.3864 368.373C38.3864 368.373 53.498 360.656 57.0687 358.727C60.641 356.798 85.093 343.568 85.093 343.568C85.093 343.568 88.1152 342.742 89.764 341.915C91.412 341.089 93.8849 341.364 94.9835 335.576C96.083 329.789 93.3347 318.213 80.9722 306.639C68.6089 295.063 60.9157 295.614 60.9157 295.614C60.9157 295.614 55.6954 295.063 54.322 296.165C52.9479 297.268 52.674 300.575 51.2999 301.127C49.9257 301.677 11.9103 313.108 11.9103 313.108" fill="#38BFF2"/>
<path d="M38.3864 368.373C38.3864 368.373 53.498 360.656 57.0687 358.727C60.641 356.798 85.093 343.568 85.093 343.568C85.093 343.568 88.1152 342.742 89.764 341.915C91.412 341.089 93.8849 341.364 94.9835 335.576C96.083 329.789 93.3347 318.213 80.9722 306.639C68.6089 295.063 60.9157 295.614 60.9157 295.614C60.9157 295.614 55.6954 295.063 54.322 296.165C52.9479 297.268 52.674 300.575 51.2999 301.127C49.9257 301.677 11.9103 313.108 11.9103 313.108" stroke="#1A2E35" stroke-width="1.33333" stroke-miterlimit="10" stroke-linecap="round" stroke-linejoin="round"/>
<path d="M81.5211 325.93C81.5211 325.93 83.1691 334.199 79.3229 341.088" stroke="#1A2E35" stroke-width="1.33333" stroke-miterlimit="10" stroke-linecap="round" stroke-linejoin="round"/>
<path d="M77.6743 336.679C77.6743 336.679 79.3224 337.229 74.9276 344.396" stroke="#1A2E35" stroke-width="1.33333" stroke-miterlimit="10" stroke-linecap="round" stroke-linejoin="round"/>
<path d="M246.978 282.867C246.978 282.867 265.085 304.455 270.522 308.818C275.958 313.182 280.851 315.908 280.851 315.908L300.422 335.54C300.422 335.54 299.878 338.267 305.315 341.539C310.751 344.811 321.624 348.629 324.343 349.719C327.061 350.81 356.96 364.443 356.96 364.443L246.978 282.867Z" fill="#1A2E35"/>
<path d="M246.978 282.867C246.978 282.867 265.085 304.455 270.522 308.818C275.958 313.182 280.851 315.908 280.851 315.908L300.422 335.54C300.422 335.54 299.878 338.267 305.315 341.539C310.751 344.811 321.624 348.629 324.343 349.719C327.061 350.81 356.96 364.443 356.96 364.443L246.978 282.867Z" stroke="#1A2E35" stroke-width="1.33333" stroke-miterlimit="10" stroke-linecap="round" stroke-linejoin="round"/>
<path d="M250.024 268.161L246.406 257.084C244.883 258.23 238.219 260.713 238.219 260.713C242.599 261.859 250.024 268.161 250.024 268.161ZM220.704 249.827C222.608 250.399 229.462 250.018 229.462 250.018C229.462 250.018 233.651 246.771 235.745 244.861C237.839 242.951 243.17 231.684 245.835 231.11C248.5 230.537 259.733 237.032 259.733 237.032C259.733 237.032 268.872 233.02 271.157 233.402C273.441 233.785 280.866 240.469 280.866 240.469C280.866 240.469 291.148 238.941 293.051 241.997C294.955 245.052 298.002 254.793 301.048 260.903C304.094 267.015 315.136 283.249 315.136 283.249L316.659 285.35C316.659 285.35 314.375 286.113 307.33 289.742C300.286 293.371 289.053 310.56 289.053 310.56C289.053 310.56 273.441 303.302 264.684 299.291C255.926 295.28 248.881 286.496 246.978 282.867C245.073 279.238 241.837 275.8 237.839 272.553C233.841 269.308 226.416 267.97 224.702 265.678C222.989 263.386 225.844 259.948 225.844 259.948C225.844 259.948 223.751 258.802 222.798 258.039C221.846 257.275 218.038 255.174 217.657 252.882C217.277 250.591 218.8 249.254 220.704 249.827Z" fill="white"/>
<path d="M250.024 268.161L246.406 257.084C244.883 258.23 238.219 260.713 238.219 260.713C242.599 261.859 250.024 268.161 250.024 268.161ZM220.704 249.827C222.608 250.399 229.462 250.018 229.462 250.018C229.462 250.018 233.651 246.771 235.745 244.861C237.839 242.951 243.17 231.684 245.835 231.11C248.5 230.537 259.733 237.032 259.733 237.032C259.733 237.032 268.872 233.02 271.157 233.402C273.441 233.785 280.866 240.469 280.866 240.469C280.866 240.469 291.148 238.941 293.051 241.997C294.955 245.052 298.002 254.793 301.048 260.903C304.094 267.015 315.136 283.249 315.136 283.249L316.659 285.35C316.659 285.35 314.375 286.113 307.33 289.742C300.286 293.371 289.053 310.56 289.053 310.56C289.053 310.56 273.441 303.302 264.684 299.291C255.926 295.28 248.881 286.496 246.978 282.867C245.073 279.238 241.837 275.8 237.839 272.553C233.841 269.308 226.416 267.97 224.702 265.678C222.989 263.386 225.844 259.948 225.844 259.948C225.844 259.948 223.751 258.802 222.798 258.039C221.846 257.275 218.038 255.174 217.657 252.882C217.277 250.591 218.8 249.254 220.704 249.827V249.827Z" stroke="#1A2E35" stroke-width="1.33333" stroke-miterlimit="10" stroke-linecap="round" stroke-linejoin="round"/>
<path d="M288.101 253.073C288.101 253.073 288.672 249.827 288.291 248.681C287.911 247.535 280.867 240.469 280.867 240.469" stroke="#1A2E35" stroke-width="1.33333" stroke-miterlimit="10" stroke-linecap="round" stroke-linejoin="round"/>
<path d="M282.009 256.893L280.485 251.928L259.733 237.031" stroke="#1A2E35" stroke-width="1.33333" stroke-miterlimit="10" stroke-linecap="round" stroke-linejoin="round"/>
<path d="M271.728 260.522C271.728 260.522 270.966 255.747 270.014 254.983C269.062 254.22 261.827 252.5 261.827 252.5C261.827 252.5 250.785 242.951 248.881 242.951C246.977 242.951 233.079 250.399 229.462 250.018" stroke="#1A2E35" stroke-width="1.33333" stroke-miterlimit="10" stroke-linecap="round" stroke-linejoin="round"/>
<path d="M223.37 250.781C223.37 250.781 225.849 250.79 224.517 252.318C223.184 253.845 220.328 253.082 218.995 252.7" stroke="#1A2E35" stroke-width="1.33333" stroke-miterlimit="10" stroke-linecap="round" stroke-linejoin="round"/>
<path d="M238.22 260.713C238.22 260.713 231.366 256.702 225.844 259.949" stroke="#1A2E35" stroke-width="1.33333" stroke-miterlimit="10" stroke-linecap="round" stroke-linejoin="round"/>
<path d="M227.558 261.095L231.366 262.432C231.366 262.432 229.842 265.487 229.652 266.633L229.462 267.779" stroke="#1A2E35" stroke-width="1.33333" stroke-miterlimit="10" stroke-linecap="round" stroke-linejoin="round"/>
<path d="M250.024 268.161L253.451 275.8" stroke="#1A2E35" stroke-width="1.33333" stroke-miterlimit="10" stroke-linecap="round" stroke-linejoin="round"/>
<path d="M340.458 297.763C340.458 297.763 328.464 289.934 324.085 286.687C319.706 283.44 317.421 284.012 315.136 283.249C312.851 282.485 301.429 285.923 293.813 295.472C286.197 305.021 286.959 312.087 287.911 313.998C288.863 315.906 312.851 330.421 312.851 330.421C312.851 330.421 316.278 316.67 326.369 308.459C336.46 300.247 340.458 297.763 340.458 297.763Z" fill="#38BFF2"/>
<path d="M340.458 297.763C340.458 297.763 328.464 289.934 324.085 286.687C319.706 283.44 317.421 284.012 315.136 283.249C312.851 282.485 301.429 285.923 293.813 295.472C286.197 305.021 286.959 312.087 287.911 313.998C288.863 315.906 312.851 330.421 312.851 330.421C312.851 330.421 316.278 316.67 326.369 308.459C336.46 300.247 340.458 297.763 340.458 297.763Z" stroke="#1A2E35" stroke-width="1.33333" stroke-miterlimit="10" stroke-linecap="round" stroke-linejoin="round"/>
<path d="M388.436 320.612C388.436 320.612 366.216 306.992 362.513 304.756C358.81 302.52 354.522 299.47 354.522 299.47C354.522 299.47 353.352 293.575 347.7 293.372C342.048 293.168 336.59 295.405 329.184 299.47C321.778 303.537 312.616 318.376 311.642 324.271C310.668 330.167 308.719 331.996 310.278 335.858C311.837 339.721 317.684 339.924 318.854 339.924C320.023 339.924 322.752 342.364 322.752 342.364L364.462 369.605" fill="#38BFF2"/>
<path d="M388.436 320.612C388.436 320.612 366.216 306.992 362.513 304.756C358.81 302.52 354.522 299.47 354.522 299.47C354.522 299.47 353.352 293.575 347.7 293.372C342.048 293.168 336.59 295.405 329.184 299.47C321.778 303.537 312.616 318.376 311.642 324.271C310.668 330.167 308.719 331.996 310.278 335.858C311.837 339.721 317.684 339.924 318.854 339.924C320.023 339.924 322.752 342.364 322.752 342.364L364.462 369.605" stroke="#1A2E35" stroke-width="1.33333" stroke-miterlimit="10" stroke-linecap="round" stroke-linejoin="round"/>
<path d="M319.491 329.574C319.491 329.574 317.747 330.873 321.235 336.329" stroke="#1A2E35" stroke-width="1.33333" stroke-miterlimit="10" stroke-linecap="round" stroke-linejoin="round"/>
<path d="M321.982 332.172C321.982 332.172 322.231 337.888 327.462 343.083" stroke="#1A2E35" stroke-width="1.33333" stroke-miterlimit="10" stroke-linecap="round" stroke-linejoin="round"/>
</svg>
