<svg width="60" height="60" viewBox="0 0 60 60" fill="none" xmlns="http://www.w3.org/2000/svg">
<path d="M58.179 8.05254V37.7281H1.60205V8.05254C1.60205 6.70339 2.67939 5.61066 4.00954 5.61066H55.7716C57.1017 5.61054 58.179 6.70339 58.179 8.05254Z" fill="white"/>
<path d="M1.60205 37.7289V43.1836C1.60205 44.5323 2.67997 45.6255 4.00954 45.6255H55.7716C57.1012 45.6255 58.179 44.5322 58.179 43.1836V37.7289H1.60205Z" fill="#38BFF2"/>
<path d="M23.5767 45.6255H36.204V51.3719H23.5767V45.6255Z" fill="#D7E9FF"/>
<path d="M41.2656 52.0827L42.7706 53.6014C43.1512 53.9855 42.883 54.6447 42.346 54.6447H17.4341C16.8972 54.6447 16.629 53.9855 17.0096 53.6014L18.5146 52.0827C18.9657 51.6275 19.5762 51.3719 20.2126 51.3719H39.5675C40.204 51.3719 40.8145 51.6275 41.2656 52.0827Z" fill="#38BFF2"/>
<path d="M29.8906 42.892C30.5521 42.892 31.0884 42.3481 31.0884 41.6772C31.0884 41.0062 30.5521 40.4623 29.8906 40.4623C29.2291 40.4623 28.6929 41.0062 28.6929 41.6772C28.6929 42.3481 29.2291 42.892 29.8906 42.892Z" fill="#D7E9FF"/>
<path d="M58.7809 8.05244C58.7809 6.36939 57.4308 5 55.7715 5H4.00945C2.3501 5 1 6.36939 1 8.05244V43.1839C1 44.8669 2.3501 46.2363 4.00945 46.2363H22.9747V50.7613H20.2127C19.4115 50.7613 18.658 51.0773 18.0909 51.6502L16.5856 53.1687C15.826 53.9352 16.362 55.2553 17.4343 55.2553H42.3466C43.4184 55.2553 43.9555 53.9357 43.1953 53.1687L41.69 51.6502C41.1229 51.0767 40.3694 50.7613 39.5682 50.7613H36.8062V46.2363H55.7715C57.4308 46.2363 58.7809 44.8669 58.7809 43.1839C58.7809 30.7046 58.7809 21.4298 58.7809 8.05244ZM2.2038 8.05244C2.2038 7.04252 3.01375 6.221 4.00945 6.221H55.7715C56.7672 6.221 57.5771 7.04252 57.5771 8.05244V37.1177H2.2038V8.05244ZM40.8408 52.5151C40.8413 52.5157 40.8413 52.5157 40.8413 52.5157L42.3466 54.0342H17.4343L18.9402 52.5151C19.2805 52.1717 19.7324 51.9822 20.2127 51.9822H39.5682C40.0484 51.9822 40.5004 52.1717 40.8408 52.5151ZM35.6025 50.7612H24.1784V46.2362H35.6025V50.7612ZM57.5771 43.1839C57.5771 44.1938 56.7672 45.0153 55.7715 45.0153C38.5076 45.0153 21.2321 45.0153 4.00945 45.0153C3.01375 45.0153 2.2038 44.1938 2.2038 43.1839V38.3393H57.5771V43.1839Z" fill="#1A2E35"/>
<path d="M29.8902 43.5028C30.8823 43.5028 31.69 42.6837 31.69 41.6773C31.69 40.671 30.8824 39.8518 29.8902 39.8518C28.898 39.8518 28.0903 40.6709 28.0903 41.6773C28.0903 42.6837 28.898 43.5028 29.8902 43.5028ZM29.8902 41.0728C30.2187 41.0728 30.4862 41.344 30.4862 41.6773C30.4862 42.0106 30.2188 42.2819 29.8902 42.2819C29.5615 42.2819 29.2941 42.0107 29.2941 41.6773C29.2941 41.344 29.5616 41.0728 29.8902 41.0728Z" fill="#1A2E35"/>
<path d="M47.4605 12.1957H7.13895C6.80622 12.1957 6.53711 12.4688 6.53711 12.8062C6.53711 13.1436 6.80633 13.4166 7.13895 13.4166H47.4605C47.7933 13.4166 48.0624 13.1436 48.0624 12.8062C48.0624 12.4688 47.7931 12.1957 47.4605 12.1957Z" fill="#1A2E35"/>
<path d="M47.4605 16.3659H7.13895C6.80622 16.3659 6.53711 16.639 6.53711 16.9763C6.53711 17.3137 6.80633 17.5868 7.13895 17.5868H47.4605C47.7933 17.5868 48.0624 17.3137 48.0624 16.9763C48.0624 16.639 47.7931 16.3659 47.4605 16.3659Z" fill="#1A2E35"/>
<path d="M39.1201 20.5361H7.13895C6.80622 20.5361 6.53711 20.8092 6.53711 21.1466C6.53711 21.4839 6.80633 21.757 7.13895 21.757H39.1201C39.4529 21.757 39.722 21.4839 39.722 21.1466C39.722 20.8092 39.4527 20.5361 39.1201 20.5361Z" fill="#1A2E35"/>
<path d="M30.7797 24.7063H7.13895C6.80622 24.7063 6.53711 24.9794 6.53711 25.3167C6.53711 25.6541 6.80633 25.9272 7.13895 25.9272H30.7797C31.1125 25.9272 31.3816 25.6541 31.3816 25.3167C31.3816 24.9794 31.1124 24.7063 30.7797 24.7063Z" fill="#1A2E35"/>
<path d="M22.4393 28.8765H7.13895C6.80622 28.8765 6.53711 29.1496 6.53711 29.487C6.53711 29.8243 6.80633 30.0974 7.13895 30.0974H22.4393C22.7721 30.0974 23.0412 29.8243 23.0412 29.487C23.0412 29.1496 22.772 28.8765 22.4393 28.8765Z" fill="#1A2E35"/>
</svg>
