<svg width="60" height="60" viewBox="0 0 60 60" fill="none" xmlns="http://www.w3.org/2000/svg">
<path d="M53.4492 9.00499V52.8304C53.4492 53.9809 52.5178 54.9124 51.3673 54.9124H9.22935C8.07881 54.9124 7.1474 53.9809 7.1474 52.8304V50.1019C6.02428 50.1019 5.00521 49.6417 4.27103 48.9076C3.52596 48.1734 3.07666 47.1488 3.07666 46.0257H7.1474V9.00499C7.1474 7.85444 8.07881 6.92303 9.22935 6.92303H51.3673C52.518 6.92303 53.4492 7.85444 53.4492 9.00499Z" fill="white"/>
<path d="M7.30724 49.6154C5.1534 49.6154 4.10211 47.0512 3.8457 45.7692L45.7688 45.3846C46.5605 48.5513 48.3518 49.4925 49.4928 49.6154H49.9996C49.8536 49.6336 49.6821 49.6357 49.4928 49.6154H7.30724Z" fill="#38BFF2"/>
<path d="M16.1316 23.0769C14.3156 23.0769 12.8384 24.551 12.8384 26.3626C12.8384 28.1748 14.3156 29.6489 16.1316 29.6489C17.9433 29.6489 19.4173 28.1748 19.4173 26.3626C19.4173 24.551 17.9433 23.0769 16.1316 23.0769Z" fill="#38BFF2"/>
<path d="M16.1316 23.0769C14.3156 23.0769 12.8384 24.551 12.8384 26.3626C12.8384 28.1748 14.3156 29.6489 16.1316 29.6489C17.9433 29.6489 19.4173 28.1748 19.4173 26.3626C19.4173 24.551 17.9433 23.0769 16.1316 23.0769ZM16.1316 28.5531C14.92 28.5531 13.9342 27.5702 13.9342 26.3626C13.9342 25.155 14.92 24.1726 16.1316 24.1726C17.3392 24.1726 18.3216 25.155 18.3216 26.3626C18.3216 27.5702 17.3392 28.5531 16.1316 28.5531Z" fill="#1A2E35"/>
<path d="M25.8625 23.0769C24.0466 23.0769 22.5693 24.551 22.5693 26.3626C22.5693 28.1748 24.0466 29.6489 25.8625 29.6489C27.6745 29.6489 29.1485 28.1748 29.1485 26.3626C29.1486 24.551 27.6745 23.0769 25.8625 23.0769Z" fill="#38BFF2"/>
<path d="M25.8625 23.0769C24.0466 23.0769 22.5693 24.551 22.5693 26.3626C22.5693 28.1748 24.0466 29.6489 25.8625 29.6489C27.6745 29.6489 29.1485 28.1748 29.1485 26.3626C29.1486 24.551 27.6745 23.0769 25.8625 23.0769ZM25.8625 28.5531C24.6509 28.5531 23.6652 27.5702 23.6652 26.3626C23.6652 25.155 24.6509 24.1726 25.8625 24.1726C27.0702 24.1726 28.0528 25.155 28.0528 26.3626C28.0528 27.5702 27.0702 28.5531 25.8625 28.5531Z" fill="#1A2E35"/>
<path d="M35.5945 23.1427C33.7785 23.1427 32.3013 24.6168 32.3013 26.4284C32.3013 28.2406 33.7785 29.7147 35.5945 29.7147C37.4064 29.7147 38.8804 28.2406 38.8804 26.4284C38.8804 24.6168 37.4064 23.1427 35.5945 23.1427Z" fill="#38BFF2"/>
<path d="M35.5945 23.0769C33.7785 23.0769 32.3013 24.551 32.3013 26.3626C32.3013 28.1748 33.7785 29.6489 35.5945 29.6489C37.4064 29.6489 38.8804 28.1748 38.8804 26.3626C38.8804 24.551 37.4064 23.0769 35.5945 23.0769ZM35.5945 28.5531C34.3829 28.5531 33.3971 27.5702 33.3971 26.3626C33.3971 25.155 34.3829 24.1726 35.5945 24.1726C36.8021 24.1726 37.7847 25.155 37.7847 26.3626C37.7846 27.5702 36.8021 28.5531 35.5945 28.5531Z" fill="#1A2E35"/>
<path d="M45.3254 29.6489C47.1374 29.6489 48.6114 28.1748 48.6114 26.3626C48.6114 24.5509 47.1373 23.0769 45.3254 23.0769C43.5095 23.0769 42.0322 24.551 42.0322 26.3626C42.0322 28.1748 43.5095 29.6489 45.3254 29.6489Z" fill="#38BFF2"/>
<path d="M45.3254 29.6489C47.1374 29.6489 48.6114 28.1748 48.6114 26.3626C48.6114 24.5509 47.1373 23.0769 45.3254 23.0769C43.5095 23.0769 42.0322 24.551 42.0322 26.3626C42.0322 28.1748 43.5095 29.6489 45.3254 29.6489ZM45.3254 24.1727C46.533 24.1727 47.5157 25.1551 47.5157 26.3627C47.5157 27.5703 46.533 28.5532 45.3254 28.5532C44.1138 28.5532 43.128 27.5703 43.128 26.3627C43.128 25.155 44.1138 24.1727 45.3254 24.1727Z" fill="#1A2E35"/>
<path d="M16.1316 32.3077C14.3156 32.3077 12.8384 33.7818 12.8384 35.594C12.8384 37.4057 14.3156 38.8797 16.1316 38.8797C17.9433 38.8797 19.4173 37.4056 19.4173 35.594C19.4173 33.7818 17.9433 32.3077 16.1316 32.3077Z" fill="#38BFF2"/>
<path d="M16.1316 32.3077C14.3156 32.3077 12.8384 33.7818 12.8384 35.594C12.8384 37.4057 14.3156 38.8797 16.1316 38.8797C17.9433 38.8797 19.4173 37.4056 19.4173 35.594C19.4173 33.7818 17.9433 32.3077 16.1316 32.3077ZM16.1316 37.7839C14.92 37.7839 13.9342 36.8015 13.9342 35.5939C13.9342 34.3862 14.92 33.4034 16.1316 33.4034C17.3392 33.4034 18.3216 34.3862 18.3216 35.5939C18.3216 36.8015 17.3392 37.7839 16.1316 37.7839Z" fill="#1A2E35"/>
<path d="M25.8625 32.3077C24.0466 32.3077 22.5693 33.7818 22.5693 35.594C22.5693 37.4057 24.0466 38.8797 25.8625 38.8797C27.6745 38.8797 29.1485 37.4056 29.1485 35.594C29.1486 33.7818 27.6745 32.3077 25.8625 32.3077Z" fill="#38BFF2"/>
<path d="M25.8625 32.3077C24.0466 32.3077 22.5693 33.7818 22.5693 35.594C22.5693 37.4057 24.0466 38.8797 25.8625 38.8797C27.6745 38.8797 29.1485 37.4056 29.1485 35.594C29.1486 33.7818 27.6745 32.3077 25.8625 32.3077ZM25.8625 37.7839C24.6509 37.7839 23.6652 36.8015 23.6652 35.5939C23.6652 34.3862 24.6509 33.4034 25.8625 33.4034C27.0702 33.4034 28.0528 34.3862 28.0528 35.5939C28.0528 36.8015 27.0702 37.7839 25.8625 37.7839Z" fill="#1A2E35"/>
<path d="M35.5945 32.3077C33.7785 32.3077 32.3013 33.7818 32.3013 35.594C32.3013 37.4057 33.7785 38.8797 35.5945 38.8797C37.4064 38.8797 38.8804 37.4056 38.8804 35.594C38.8804 33.7818 37.4064 32.3077 35.5945 32.3077ZM35.5945 37.7839C34.3829 37.7839 33.3971 36.8015 33.3971 35.5939C33.3971 34.3862 34.3829 33.4034 35.5945 33.4034C36.8021 33.4034 37.7847 34.3862 37.7847 35.5939C37.7847 36.8015 36.8021 37.7839 35.5945 37.7839Z" fill="#1A2E35"/>
<path d="M48.6119 35.594C48.6119 33.7818 47.1378 32.3077 45.3259 32.3077C43.51 32.3077 42.0327 33.7818 42.0327 35.594C42.0327 37.4057 43.51 38.8797 45.3259 38.8797C47.1379 38.8797 48.6119 37.4056 48.6119 35.594ZM45.3259 37.7839C44.1143 37.7839 43.1285 36.8015 43.1285 35.5939C43.1285 34.3862 44.1143 33.4034 45.3259 33.4034C46.5335 33.4034 47.5162 34.3862 47.5162 35.5939C47.5162 36.8015 46.5335 37.7839 45.3259 37.7839Z" fill="#1A2E35"/>
<path d="M51.7933 5.90201H47.396V2.93787C47.396 2.63505 47.1508 2.39001 46.8482 2.39001C46.5456 2.39001 46.3003 2.63505 46.3003 2.93787V5.90201H13.8415V2.93787C13.8415 2.63505 13.5962 2.39001 13.2937 2.39001C12.9911 2.39001 12.7458 2.63505 12.7458 2.93787V5.90201H9.65674C8.20678 5.90201 7.02729 7.08173 7.02729 8.53181C7.02705 13.3509 7.02564 44.801 7.02564 45.0064H3.50146C3.19889 45.0064 2.95361 45.2515 2.95361 45.5543C2.95361 47.987 4.79041 49.8758 7.02553 50.1397V52.3574C7.02553 53.8073 8.20525 54.9872 9.65533 54.9872H51.7934C53.2433 54.9872 54.4232 53.8074 54.4232 52.3574C54.4232 42.6947 54.4232 17.7042 54.4232 8.53181C54.4231 7.08173 53.2433 5.90201 51.7933 5.90201ZM9.65662 6.99783H12.7457V11.3456C12.7457 11.6484 12.991 11.8935 13.2935 11.8935C13.5961 11.8935 13.8414 11.6484 13.8414 11.3456V6.99783H46.3002V11.3456C46.3002 11.6484 46.5455 11.8935 46.8481 11.8935C47.1506 11.8935 47.3959 11.6484 47.3959 11.3456V6.99783H51.7931C52.639 6.99783 53.3271 7.68595 53.3271 8.53181V15.6929H8.12287V8.53169C8.12287 7.68583 8.811 6.99783 9.65662 6.99783ZM8.12135 16.7891H53.3274V45.5526C53.3274 47.4974 51.748 49.0795 49.8065 49.0806C49.8047 49.0806 49.8034 49.0796 49.8017 49.0796C47.8548 49.0796 46.2762 47.5018 46.2762 45.5542C46.2762 45.2513 46.0309 45.0063 45.7283 45.0063H8.12135V16.7891ZM4.09104 46.1021H45.2125C45.3497 47.269 45.9223 48.3213 46.8144 49.0796H7.57502C5.80092 49.0796 4.34768 47.7728 4.09104 46.1021ZM53.3272 52.3574C53.3272 53.2032 52.6391 53.8913 51.7933 53.8913H9.65533C8.80947 53.8913 8.12135 53.2033 8.12135 52.3574V50.1765H49.8044C51.2158 50.1765 52.4795 49.5378 53.3274 48.5359V52.3574H53.3272Z" fill="#1A2E35"/>
</svg>
