<svg width="19" height="19" viewBox="0 0 19 19" fill="none" xmlns="http://www.w3.org/2000/svg">
<path d="M13.4009 0.686356H5.21216C2.54708 0.686356 0.378906 2.8545 0.378906 5.51959V13.7084C0.378906 16.3735 2.54708 18.5417 5.21216 18.5417H13.4011C16.0659 18.5417 18.2341 16.3735 18.2341 13.7084V5.51959C18.2341 2.8545 16.0659 0.686356 13.4009 0.686356ZM9.30652 14.4961C6.61446 14.4961 4.42438 12.306 4.42438 9.61397C4.42438 6.92189 6.61446 4.73181 9.30652 4.73181C11.9986 4.73181 14.1888 6.92189 14.1888 9.61397C14.1888 12.306 11.9986 14.4961 9.30652 14.4961ZM14.3054 5.88319C13.5099 5.88319 12.8628 5.23611 12.8628 4.44057C12.8628 3.64502 13.5099 2.9978 14.3054 2.9978C15.101 2.9978 15.7481 3.64502 15.7481 4.44057C15.7481 5.23611 15.101 5.88319 14.3054 5.88319Z" fill="white"/>
<path d="M9.30659 5.77873C7.19182 5.77873 5.47119 7.49924 5.47119 9.61413C5.47119 11.7289 7.19182 13.4496 9.30659 13.4496C11.4215 13.4496 13.1419 11.7289 13.1419 9.61413C13.1419 7.49924 11.4215 5.77873 9.30659 5.77873Z" fill="white"/>
<path d="M14.3055 4.0446C14.0873 4.0446 13.9097 4.22224 13.9097 4.44046C13.9097 4.65871 14.0873 4.83634 14.3055 4.83634C14.5238 4.83634 14.7016 4.65883 14.7016 4.44046C14.7016 4.2221 14.5238 4.0446 14.3055 4.0446Z" fill="white"/>
</svg>
