<svg width="60" height="60" viewBox="0 0 60 60" fill="none" xmlns="http://www.w3.org/2000/svg">
<g clip-path="url(#clip0_355_1812)">
<circle cx="30" cy="30" r="8.64407" fill="#38BFF2"/>
<circle cx="42.2032" cy="5.59324" r="4.57627" fill="#38BFF2"/>
<circle cx="5.59336" cy="17.7966" r="4.57627" fill="#38BFF2"/>
<circle cx="17.7965" cy="54.4068" r="4.57627" fill="#38BFF2"/>
<circle cx="54.4068" cy="42.2034" r="4.57627" fill="#38BFF2"/>
<path d="M21.0814 27.6108C19.7644 32.528 22.693 37.6004 27.6108 38.9185C28.4079 39.1318 29.2086 39.2337 29.9973 39.2337C34.0735 39.2337 37.8142 36.5098 38.9184 32.3892C39.5566 30.0074 39.2289 27.5195 37.9957 25.3837C36.7625 23.248 34.7714 21.7202 32.3897 21.082C30.0063 20.4432 27.5189 20.7716 25.3836 22.0043C23.2479 23.2373 21.7202 25.2285 21.0814 27.6108ZM30.0016 22.3884C30.6514 22.3884 31.3128 22.4723 31.9696 22.6487H31.9701C33.9339 23.1745 35.5751 24.434 36.5912 26.1944C37.6079 27.9549 37.8782 30.0063 37.3519 31.9694C36.2655 36.0231 32.0836 38.4402 28.0305 37.3517C23.9764 36.2654 21.5619 32.084 22.6482 28.0304C23.5583 24.6335 26.641 22.3884 30.0016 22.3884ZM13.9604 26.3914C13.9804 26.3931 14 26.3935 14.0196 26.3935C14.4409 26.3935 14.7967 26.0673 14.8272 25.6407C15.8456 11.4205 26.5052 5.3401 36.89 5.49596C36.9268 6.32811 37.1607 7.14549 37.5893 7.88752C38.2914 9.10381 39.4253 9.97369 40.7819 10.3374C41.2349 10.4588 41.6941 10.5185 42.1507 10.5185C43.0618 10.5185 43.9614 10.2793 44.7716 9.81162C45.7098 9.26998 46.4389 8.46971 46.8915 7.51018C50.6783 8.97315 54.2133 11.1547 57.4031 14.0219C57.5583 14.1613 57.7521 14.2299 57.9448 14.2299C58.1669 14.2299 58.3882 14.1391 58.5482 13.9612C58.8475 13.6282 58.8205 13.1156 58.4875 12.8163C55.1151 9.7849 51.3688 7.48334 47.35 5.94924C47.6931 3.37205 46.0802 0.870214 43.503 0.179394C40.708 -0.568614 37.8265 1.09029 37.069 3.88053C23.9177 3.58768 14.15 12.3963 13.2096 25.5246C13.1776 25.9712 13.5138 26.3592 13.9604 26.3914ZM38.6303 4.31693C39.0647 2.69424 40.538 1.62162 42.1433 1.62162C42.4542 1.62162 42.7699 1.6617 43.084 1.74619C45.0203 2.2651 46.1736 4.26256 45.6547 6.1999C45.1358 8.13666 43.1362 9.29061 41.201 8.77065C39.2648 8.25174 38.1114 6.25428 38.6303 4.31693ZM3.88064 22.9309C3.58732 36.0803 12.3961 45.8494 25.5246 46.7903C25.5446 46.7918 25.5642 46.7924 25.5838 46.7924C26.0051 46.7924 26.3608 46.4661 26.3914 46.0396C26.4237 45.593 26.0873 45.205 25.6408 45.1727C11.4173 44.1537 5.33236 33.4868 5.49584 23.1024C6.32787 23.0657 7.14572 22.8389 7.88763 22.4107C9.10392 21.7086 9.97381 20.5747 10.3376 19.218C10.7007 17.8619 10.5144 16.4446 9.81174 15.2283C9.2701 14.2901 8.46982 13.561 7.51029 13.1083C8.97314 9.32155 11.1549 5.78647 14.0221 2.59662C14.3213 2.26357 14.2944 1.751 13.9613 1.4517C13.6272 1.15135 13.1147 1.17982 12.8164 1.5124C9.78513 4.88482 7.48345 8.63119 5.94947 12.65C3.37228 12.3071 0.869976 13.9196 0.179625 16.4968C-0.568969 19.2913 1.09099 22.1728 3.88064 22.9309ZM1.7463 16.9159C2.18072 15.2932 3.654 14.2206 5.25935 14.2206C5.57025 14.2206 5.88595 14.2606 6.20002 14.3451C8.13631 14.864 9.28967 16.8615 8.77076 18.7989C8.25185 20.7356 6.2517 21.8891 4.31705 21.3696C2.38088 20.8507 1.2274 18.8532 1.7463 16.9159ZM46.0396 33.6085C45.5856 33.5706 45.205 33.9131 45.1728 34.3592C44.1545 48.5796 33.4981 54.6671 23.1101 54.5045C23.0735 53.672 22.8395 52.8546 22.4108 52.1123C21.7087 50.896 20.5748 50.0262 19.2181 49.6624C17.8615 49.2993 16.4453 49.486 15.2284 50.1882C14.2902 50.7299 13.561 51.5301 13.1085 52.4897C9.32178 51.0267 5.7867 48.8451 2.59685 45.9779C2.26275 45.6776 1.75017 45.706 1.45193 46.0386C1.15263 46.3717 1.17959 46.8842 1.51263 47.1835C4.88494 50.215 8.63131 52.5165 12.6501 54.0506C12.307 56.6278 13.9199 59.1296 16.4971 59.8205C16.951 59.9419 17.4071 60 17.8563 60C20.1724 60 22.2973 58.4556 22.9315 56.1184C23.1436 56.1231 23.3574 56.1333 23.5679 56.1333C36.3954 56.1333 45.865 47.3916 46.7904 34.4754C46.8224 34.0288 46.4862 33.6408 46.0396 33.6085ZM21.3697 55.683C20.8508 57.6198 18.8502 58.7737 16.916 58.2538C14.9797 57.7349 13.8263 55.7374 14.3453 53.8001C14.7797 52.1774 16.253 51.1048 17.8583 51.1048C18.1692 51.1048 18.4849 51.1448 18.799 51.2293C20.7351 51.7481 21.8886 53.7457 21.3697 55.683ZM56.1193 37.0691C56.4127 23.9197 47.604 14.1506 34.4754 13.2096C34.0298 13.1758 33.6408 13.5142 33.6087 13.9603C33.5764 14.4069 33.9128 14.7949 34.3592 14.8271C48.5793 15.8461 54.6648 26.5079 54.5042 36.8899C53.6717 36.9266 52.8546 37.1608 52.1123 37.5894C50.896 38.2915 50.0262 39.4254 49.6624 40.7821C49.2993 42.1382 49.4856 43.5555 50.1882 44.7718C50.7299 45.71 51.5301 46.4391 52.4897 46.8918C51.0268 50.6785 48.845 54.2136 45.9779 57.4035C45.6786 57.7365 45.7056 58.2491 46.0386 58.5484C46.1938 58.6877 46.3876 58.7564 46.5803 58.7564C46.8024 58.7564 47.0237 58.6656 47.1837 58.4877C50.2139 55.1164 52.515 51.3715 54.0491 47.3543C54.2804 47.3852 54.5113 47.4012 54.7403 47.4012C57.0619 47.4012 59.1919 45.8497 59.8206 43.5033C60.5689 40.7087 58.909 37.8272 56.1193 37.0691ZM58.2537 43.0841C57.7348 45.0209 55.7346 46.1748 53.7999 45.6548C51.8637 45.1359 50.7103 43.1385 51.2292 41.2011C51.6636 39.5784 53.1369 38.5058 54.7423 38.5058C55.0532 38.5058 55.3689 38.5459 55.6829 38.6304C57.6191 39.1492 58.7726 41.1467 58.2537 43.0841Z" fill="#1A2E35"/>
</g>
<defs>
<clipPath id="clip0_355_1812">
<rect width="60" height="60" fill="white"/>
</clipPath>
</defs>
</svg>
