<svg width="60" height="60" viewBox="0 0 60 60" fill="none" xmlns="http://www.w3.org/2000/svg">
<g clip-path="url(#clip0_355_14944)">
<path d="M50.7615 50.7682C62.2314 39.2982 62.2314 20.7018 50.7615 9.23185C39.2915 -2.23809 20.6951 -2.23809 9.22518 9.23185C-2.24475 20.7018 -2.24475 39.2982 9.22518 50.7682C20.6951 62.2381 39.2915 62.2381 50.7615 50.7682Z" fill="#38BFF2"/>
<path d="M30 53.125C42.7715 53.125 53.1249 42.7716 53.1249 30.0001C53.1249 17.2285 42.7715 6.87512 30 6.87512C17.2284 6.87512 6.875 17.2285 6.875 30.0001C6.875 42.7716 17.2284 53.125 30 53.125Z" fill="white"/>
<path d="M30 0C13.4579 0 0 13.4579 0 30C0 46.5421 13.4579 60 30 60C46.5421 60 60 46.5421 60 30C60 13.4579 46.5421 0 30 0ZM30 58.75C14.1473 58.75 1.25004 45.8527 1.25004 30C1.25004 14.1473 14.1473 1.25004 30 1.25004C45.8527 1.25004 58.75 14.1473 58.75 30C58.75 45.8527 45.8527 58.75 30 58.75Z" fill="#1A2E35"/>
<path d="M30 6.25C16.9043 6.25 6.25 16.9043 6.25 30C6.25 43.0957 16.9043 53.7501 30 53.7501C43.0957 53.7501 53.7501 43.0957 53.7501 30C53.7501 16.9043 43.0957 6.25 30 6.25ZM30 52.5C17.5934 52.5 7.50004 42.4067 7.50004 30C7.50004 17.5934 17.5934 7.50004 30 7.50004C42.4067 7.50004 52.5 17.5934 52.5 30C52.5 42.4067 42.4067 52.5 30 52.5Z" fill="#1A2E35"/>
<path d="M32.5024 16.4896H24.1903C24.1798 16.489 24.1709 16.4835 24.1601 16.4835C23.815 16.4835 23.5351 16.7634 23.5351 17.1085V17.1146V29.0658H21.2094C20.8643 29.0658 20.5845 29.3457 20.5845 29.6908C20.5845 30.0359 20.8643 30.3157 21.2094 30.3157H23.5351V32.9614H21.2094C20.8643 32.9614 20.5845 33.2412 20.5845 33.5863C20.5845 33.9314 20.8643 34.2113 21.2094 34.2113H23.5351V42.8914C23.5351 43.2365 23.815 43.5163 24.1601 43.5163C24.5052 43.5163 24.7851 43.2365 24.7851 42.8914V34.2113H36.0634C36.4085 34.2113 36.6884 33.9314 36.6884 33.5863C36.6884 33.2412 36.4085 32.9614 36.0634 32.9614H24.7852V30.3157H25.8387H32.0649C35.8978 30.3157 39.1175 27.5234 39.3942 23.9587C39.3942 23.9583 39.3942 23.9583 39.3942 23.9583C39.7157 19.8147 36.4443 16.4896 32.5024 16.4896ZM38.148 23.862V23.8616C37.9216 26.7801 35.2494 29.0658 32.0649 29.0658H25.8387H24.7852V17.7395H32.5024C35.7303 17.7397 38.4121 20.4589 38.148 23.862Z" fill="#1A2E35"/>
</g>
<defs>
<clipPath id="clip0_355_14944">
<rect width="60" height="60" fill="white"/>
</clipPath>
</defs>
</svg>
