<svg width="60" height="60" viewBox="0 0 60 60" fill="none" xmlns="http://www.w3.org/2000/svg">
<path d="M6.5 4.75H40.3652C43.2647 4.75 45.6152 7.1005 45.6152 10V35.7119C45.6151 38.6113 43.2646 40.9619 40.3652 40.9619H18.7266C17.1184 40.9619 15.532 41.3223 14.084 42.0156L13.7959 42.1592L3.07324 47.6934C2.2413 48.1227 1.25 47.5182 1.25 46.582V10C1.25 7.10051 3.60051 4.75 6.5 4.75Z" fill="white" stroke="#263238" stroke-width="1.5"/>
<path d="M48.5964 16.2307H52.5962C55.9099 16.2307 58.5962 18.917 58.5962 22.2307V49.2085V53.4776C58.5962 55.03 56.9045 55.9905 55.5714 55.1951L47.906 50.6211C46.3567 49.6966 44.5861 49.2085 42.7819 49.2085H25.8335C23.1003 49.2085 20.8846 46.9928 20.8846 44.2596V44.2596" stroke="#263238" stroke-width="1.5"/>
<rect x="9.94238" y="15.4807" width="28" height="3.53846" rx="1.76923" fill="#38BFF2" stroke="#263238" stroke-width="1.5"/>
<rect x="9.94238" y="22.6155" width="21.8846" height="3.53846" rx="1.76923" fill="#38BFF2" stroke="#263238" stroke-width="1.5"/>
</svg>
