<svg width="60" height="60" viewBox="0 0 60 60" fill="none" xmlns="http://www.w3.org/2000/svg">
<g clip-path="url(#clip0_355_1547)">
<path d="M59.0719 12.1051V56.3504C59.0719 57.8597 57.8534 59.0721 56.3442 59.0721H3.65551C2.14625 59.0721 0.927734 57.8597 0.927734 56.3504V12.1051H59.0719Z" fill="white"/>
<path d="M59.0719 3.65569V12.1051H0.927734V3.65569C0.927734 2.14643 2.14625 0.927917 3.65551 0.927917H56.3442C57.8534 0.927917 59.0719 2.14643 59.0719 3.65569Z" fill="#38BFF2"/>
<path d="M8.39748 6.51362C8.39748 7.301 7.75846 7.94014 6.97096 7.94014C6.18346 7.94014 5.54443 7.30112 5.54443 6.51362C5.54443 5.72612 6.18346 5.09283 6.97096 5.09283C7.75846 5.09283 8.39748 5.72623 8.39748 6.51362Z" fill="#D7E9FF"/>
<path d="M14.4292 6.51362C14.4292 7.301 13.7902 7.94014 13.0027 7.94014C12.2152 7.94014 11.5762 7.30112 11.5762 6.51362C11.5762 5.72612 12.2152 5.09283 13.0027 5.09283C13.7902 5.09283 14.4292 5.72623 14.4292 6.51362Z" fill="#D7E9FF"/>
<path d="M20.461 6.51362C20.461 7.301 19.8219 7.94014 19.0344 7.94014C18.2469 7.94014 17.6079 7.30112 17.6079 6.51362C17.6079 5.72612 18.2469 5.09283 19.0344 5.09283C19.8219 5.09283 20.461 5.72623 20.461 6.51362Z" fill="#D7E9FF"/>
<path d="M54.4557 6.51269C54.4557 7.30054 53.8117 7.93687 53.0239 7.93687H37.9261C37.1383 7.93687 36.502 7.30054 36.502 6.51269C36.502 5.72484 37.1383 5.09613 37.9261 5.09613H53.024C53.8117 5.09613 54.4557 5.72484 54.4557 6.51269Z" fill="#D7E9FF"/>
<path d="M56.344 0.309265H3.65561C1.81025 0.309265 0.309082 1.81032 0.309082 3.65579V56.3506C0.309082 58.1923 1.81014 59.6908 3.65561 59.6908H56.344C58.1894 59.6908 59.6906 58.1924 59.6906 56.3506C59.6906 49.7298 59.6906 11.5066 59.6906 3.65579C59.6906 1.81032 58.1895 0.309265 56.344 0.309265ZM1.54623 3.65579C1.54623 2.4927 2.49275 1.54641 3.65561 1.54641H56.344C57.5069 1.54641 58.4534 2.4927 58.4534 3.65579V11.4865H1.54623V3.65579ZM58.4534 56.3506C58.4534 57.51 57.5069 58.4536 56.344 58.4536H3.65561C2.49275 58.4536 1.54623 57.51 1.54623 56.3506V12.7236H58.4534V56.3506Z" fill="#1A2E35"/>
<path d="M8.37461 36.2194C9.57484 36.2194 10.551 37.185 10.551 38.3717V43.768C10.551 45.65 12.0714 47.1812 13.9398 47.1812C14.2818 47.1812 14.5584 46.9043 14.5584 46.5627C14.5584 46.2211 14.2817 45.9442 13.9398 45.9442C12.7534 45.9442 11.7882 44.968 11.7882 43.768V38.3717C11.7882 37.2182 11.2047 36.1974 10.3155 35.5848C11.1907 34.9633 11.764 33.9454 11.764 32.8062V27.4095C11.764 26.2095 12.7293 25.2333 13.9163 25.2333C14.2582 25.2333 14.5348 24.9564 14.5348 24.6148C14.5348 24.2732 14.2581 23.9963 13.9163 23.9963C12.0474 23.9963 10.5269 25.5276 10.5269 27.4095V32.8062C10.5269 33.9871 9.5568 34.9633 8.365 34.9824C7.55219 34.9953 7.56332 36.2194 8.37461 36.2194Z" fill="#1A2E35"/>
<path d="M48.2116 38.3717V43.768C48.2116 44.968 47.2463 45.9442 46.0599 45.9442C45.718 45.9442 45.4414 46.2211 45.4414 46.5627C45.4414 46.9043 45.7181 47.1812 46.0599 47.1812C47.9282 47.1812 49.4487 45.6499 49.4487 43.768V38.3717C49.4487 37.185 50.4249 36.2194 51.6251 36.2194C52.4374 36.2194 52.4465 34.9953 51.6348 34.9823C50.443 34.9633 49.4729 33.9871 49.4729 32.8061V27.4094C49.4729 25.5274 47.9525 23.9962 46.0835 23.9962C45.7415 23.9962 45.465 24.2731 45.465 24.6147C45.465 24.9563 45.7416 25.2332 46.0835 25.2332C47.2705 25.2332 48.2357 26.2094 48.2357 27.4094V32.8061C48.2357 33.9454 48.809 34.9631 49.6843 35.5847C48.7952 36.1974 48.2116 37.2182 48.2116 38.3717Z" fill="#1A2E35"/>
<path d="M25.8469 46.3423C26.1656 46.466 26.5234 46.3069 26.6467 45.9883L34.5067 25.6351C34.63 25.3165 34.4711 24.9583 34.1527 24.8353C33.8356 24.7124 33.4762 24.871 33.3529 25.1894L25.4929 45.5425C25.3697 45.8611 25.5285 46.2194 25.8469 46.3423Z" fill="#1A2E35"/>
<path d="M42.4122 35.5982L35.2813 40.4174C34.998 40.6089 34.9237 40.9934 35.1152 41.2764C35.307 41.5613 35.6931 41.6324 35.9736 41.4426L43.8613 36.1117C44.2261 35.8653 44.222 35.3316 43.8625 35.0873L35.9747 29.7359C35.6932 29.5444 35.3078 29.6178 35.1157 29.9005C34.9237 30.1832 34.9974 30.568 35.28 30.7598L42.4122 35.5982Z" fill="#1A2E35"/>
<path d="M16.1358 36.1101L23.9493 41.4409C24.2303 41.6334 24.6165 41.5607 24.8089 41.2784C25.0015 40.9963 24.9285 40.6115 24.6464 40.4188L17.5806 35.5981L24.6475 30.758C24.929 30.565 25.0008 30.1799 24.8082 29.8981C24.6149 29.6162 24.2313 29.5444 23.948 29.7371L16.1345 35.0884C15.966 35.2039 15.8657 35.3953 15.8657 35.5995C15.8657 35.8036 15.9673 35.995 16.1358 36.1101Z" fill="#1A2E35"/>
<path d="M6.97096 4.47424C5.84373 4.47424 4.92627 5.38913 4.92627 6.51354C4.92627 7.64135 5.84385 8.55858 6.97096 8.55858C8.09877 8.55858 9.01635 7.64135 9.01635 6.51354C9.01623 5.38913 8.09865 4.47424 6.97096 4.47424ZM6.97096 7.32155C6.52576 7.32155 6.1633 6.95909 6.1633 6.51366C6.1633 6.07116 6.52576 5.71151 6.97096 5.71151C7.41674 5.71151 7.7792 6.07127 7.7792 6.51366C7.77908 6.95909 7.41674 7.32155 6.97096 7.32155Z" fill="#1A2E35"/>
<path d="M13.0029 4.47424C11.8751 4.47424 10.9575 5.38913 10.9575 6.51354C10.9575 7.64135 11.8751 8.55858 13.0029 8.55858C14.1301 8.55858 15.0476 7.64135 15.0476 6.51354C15.0476 5.38913 14.13 4.47424 13.0029 4.47424ZM13.0029 7.32155C12.5571 7.32155 12.1947 6.95909 12.1947 6.51366C12.1947 6.07116 12.5571 5.71151 13.0029 5.71151C13.4481 5.71151 13.8106 6.07127 13.8106 6.51366C13.8106 6.95909 13.4481 7.32155 13.0029 7.32155Z" fill="#1A2E35"/>
<path d="M19.0342 4.47424C17.9063 4.47424 16.9888 5.38913 16.9888 6.51354C16.9888 7.64135 17.9063 8.55858 19.0342 8.55858C20.1614 8.55858 21.0788 7.64135 21.0788 6.51354C21.0788 5.38913 20.1613 4.47424 19.0342 4.47424ZM19.0342 7.32155C18.5884 7.32155 18.2259 6.95909 18.2259 6.51366C18.2259 6.07116 18.5884 5.71151 19.0342 5.71151C19.4794 5.71151 19.8418 6.07127 19.8418 6.51366C19.8418 6.95909 19.4794 7.32155 19.0342 7.32155Z" fill="#1A2E35"/>
<path d="M53.0236 4.4776H37.9257C36.7992 4.4776 35.8828 5.39061 35.8828 6.51268C35.8828 7.6392 36.7992 8.55561 37.9257 8.55561H53.0236C54.1538 8.55561 55.0738 7.6392 55.0738 6.51268C55.0738 5.39061 54.1538 4.4776 53.0236 4.4776ZM53.0236 7.31846H37.9257C37.4811 7.31846 37.12 6.95694 37.12 6.51268C37.12 6.06537 37.474 5.71475 37.9257 5.71475H53.0236C53.4718 5.71475 53.8366 6.07264 53.8366 6.51268C53.8366 6.95694 53.4718 7.31846 53.0236 7.31846Z" fill="#1A2E35"/>
</g>
<defs>
<clipPath id="clip0_355_1547">
<rect width="60" height="60" fill="white"/>
</clipPath>
</defs>
</svg>
