<svg width="21" height="15" viewBox="0 0 21 15" fill="none" xmlns="http://www.w3.org/2000/svg">
<path d="M19.473 1.66991C18.7635 0.826553 17.4537 0.482544 14.9521 0.482544H5.87164C3.31286 0.482544 1.98083 0.848739 1.27405 1.74662C0.584961 2.62205 0.584961 3.91193 0.584961 5.69715V9.09976C0.584961 12.5584 1.40256 14.3143 5.87164 14.3143H14.9521C17.1215 14.3143 18.3235 14.0108 19.1013 13.2665C19.8987 12.5032 20.2391 11.2571 20.2391 9.09976V5.69715C20.2391 3.81449 20.1857 2.51699 19.473 1.66991ZM13.2029 7.86822L9.0795 10.0232C8.98731 10.0714 8.8865 10.0953 8.78581 10.0953C8.67184 10.0953 8.5581 10.0647 8.45735 10.0036C8.26766 9.88871 8.15182 9.68312 8.15182 9.46133V5.16509C8.15182 4.9437 8.26734 4.73829 8.45666 4.62328C8.64603 4.50826 8.88156 4.50041 9.07803 4.60248L13.2015 6.74363C13.4113 6.85255 13.543 7.06913 13.5434 7.30541C13.5436 7.54191 13.4125 7.75879 13.2029 7.86822Z" fill="white"/>
</svg>
