<svg width="18" height="18" viewBox="0 0 18 18" fill="none" xmlns="http://www.w3.org/2000/svg">
<path d="M1.29289 14.2929C0.902369 14.6834 0.902369 15.3166 1.29289 15.7071C1.68342 16.0976 2.31658 16.0976 2.70711 15.7071L1.29289 14.2929ZM16 2C16 1.44771 15.5523 0.999999 15 0.999999L6 1C5.44772 1 5 1.44772 5 2C5 2.55228 5.44772 3 6 3L14 3L14 11C14 11.5523 14.4477 12 15 12C15.5523 12 16 11.5523 16 11L16 2ZM2 15L2.70711 15.7071L15.7071 2.70711L15 2L14.2929 1.29289L1.29289 14.2929L2 15Z" fill="white"/>
</svg>
