<svg width="53" height="20" viewBox="0 0 53 20" fill="none" xmlns="http://www.w3.org/2000/svg">
<path d="M21.166 5.80774H25.1973V7.82336H21.166V16.2677C21.166 17.3426 22.1368 17.6114 22.6221 17.6115H26.0371V19.4591H22.6221C20.2482 19.4591 19.4683 17.8164 19.375 16.9952V7.82336H16.9111V5.80774H19.375V2.4386H21.166V5.80774Z" fill="black"/>
<path d="M48.1289 5.80774H52.1602V7.82336H48.1289V16.2677C48.1289 17.3426 49.0997 17.6114 49.585 17.6115H53V19.4591H49.585C47.2111 19.4591 46.4312 17.8164 46.3379 16.9952V7.82336H43.874V5.80774H46.3379V2.4386H48.1289V5.80774Z" fill="black"/>
<path d="M8.58301 19.459H6.30371V11.4941H6.29785L0 0H2.2832L7.55762 9.21094L12.9365 0H15.2734L8.58105 11.4941H8.58301V19.459Z" fill="#38BFF2"/>
<path d="M35.5459 19.459H33.2666V11.4941H33.2607L26.9629 0H29.2461L34.5205 9.21094L39.8994 0H42.2363L35.5439 11.4941H35.5459V19.459Z" fill="#F15525"/>
</svg>
