<svg width="91" height="92" viewBox="0 0 91 92" fill="none" xmlns="http://www.w3.org/2000/svg">
<path d="M89.593 45.2759C89.593 52.2488 83.9499 57.8919 76.9771 57.8919V32.6243C83.9501 32.6241 89.593 38.2851 89.593 45.2759Z" fill="white"/>
<path d="M73.7906 6.66943C72.0307 6.66943 70.604 8.09611 70.604 9.85603V80.6601C70.604 82.42 72.0307 83.8467 73.7906 83.8467C75.5505 83.8467 76.9772 82.42 76.9772 80.6601V9.85603C76.9772 8.09611 75.5505 6.66943 73.7906 6.66943Z" fill="white"/>
<path d="M70.6073 12.1538V78.3622C63.5179 65.5063 46.3304 57.9759 32.3936 57.2843V33.232C46.3304 32.5403 63.5179 25.01 70.6073 12.1538Z" fill="#38BFF2"/>
<path d="M32.3893 33.2287V57.2907C32.3893 58.7167 31.2333 59.8727 29.8074 59.8727H9.79679C8.37083 59.8727 7.21484 58.7167 7.21484 57.2907V33.2287C7.21484 31.8027 8.37083 30.6467 9.79679 30.6467H29.8074C31.2333 30.6466 32.3893 31.8027 32.3893 33.2287Z" fill="white"/>
<path d="M3.78069 36.3462H7.2147V54.1724H3.78069C2.46777 54.1724 1.40723 53.112 1.40723 51.7989V38.7197C1.4074 37.4067 2.46777 36.3462 3.78069 36.3462Z" fill="#38BFF2"/>
<path d="M25.5083 28.1444V30.6426H14.1006V28.1444C14.1006 26.7757 15.2102 25.6663 16.5787 25.6663H23.0303C24.3989 25.6663 25.5083 26.7757 25.5083 28.1444Z" fill="white"/>
<path d="M18.3905 84.1093L25.8401 59.8726H13.7632V83.6013C13.7632 84.5563 14.5374 85.3305 15.4924 85.3305H16.7377C17.4968 85.3303 18.1673 84.8352 18.3905 84.1093Z" fill="#38BFF2"/>
<path d="M90.5312 45.2762C90.5312 38.1004 84.951 32.2204 77.9157 31.7336V9.8557C77.9157 7.58177 76.0652 5.7312 73.7904 5.7312C71.5164 5.7312 69.6659 7.58177 69.6659 9.8557V11.9053C62.7632 24.1685 46.2956 31.3351 33.169 32.2421C32.739 30.7836 31.403 29.7088 29.8073 29.7088H26.4469V28.144C26.4469 26.2604 24.9141 24.7276 23.0305 24.7276H16.5789C14.6953 24.7276 13.1625 26.2604 13.1625 28.144V29.7088H9.79674C7.85624 29.7088 6.27689 31.2883 6.27689 33.2287V35.4082H3.78114C1.95528 35.4082 0.469238 36.8943 0.469238 38.7201V51.7992C0.469238 53.6251 1.95528 55.1103 3.78114 55.1103H6.27671V57.2907C6.27671 59.2312 7.85624 60.8105 9.79656 60.8105H12.8255V83.6018C12.8255 85.0722 14.022 86.2687 15.4924 86.2687H16.7374C17.9165 86.2687 18.9408 85.5119 19.287 84.3851L26.5336 60.8105H29.8073C31.4039 60.8105 32.7408 59.7345 33.1697 58.2746C46.2961 59.1818 62.7641 66.3486 69.6655 78.6103V80.6599C69.6655 82.9339 71.5161 84.7844 73.79 84.7844C76.0648 84.7844 77.9154 82.9339 77.9154 80.6599V58.7822C84.951 58.2969 90.5312 52.4327 90.5312 45.2762ZM15.0388 28.144C15.0388 27.2948 15.7297 26.604 16.5789 26.604H23.0305C23.8797 26.604 24.5706 27.2948 24.5706 28.144V29.7042H15.0388V28.144ZM3.78114 53.2339C2.98951 53.2339 2.34558 52.5898 2.34558 51.7992V38.7201C2.34558 37.9285 2.98969 37.2846 3.78114 37.2846H6.27671V53.2339H3.78114ZM17.4933 83.8335V83.8344C17.3908 84.1679 17.0874 84.3923 16.7374 84.3923H15.4924C15.0563 84.3923 14.7019 84.0378 14.7019 83.6018V60.8105H24.5707L17.4933 83.8335ZM31.451 57.2907C31.451 58.1968 30.7136 58.9342 29.8075 58.9342C22.7376 58.9342 16.8704 58.9342 9.79674 58.9342C8.89065 58.9342 8.15323 58.1968 8.15323 57.2907C8.15323 51.2381 8.15323 39.2812 8.15323 33.2288C8.15323 32.3228 8.89065 31.5853 9.79674 31.5853H29.8075C30.7136 31.5853 31.451 32.3228 31.451 33.2288V57.2907ZM33.3318 56.4011V34.1156C46.0187 33.2251 61.7259 26.6662 69.6657 15.4179V75.0977C61.727 63.8505 46.0188 57.2905 33.3318 56.4011ZM76.0394 80.6599C76.0394 81.8994 75.0308 82.9081 73.7902 82.9081C72.5507 82.9081 71.542 81.8994 71.542 80.6599C71.5466 -6.4205 71.542 16.2014 71.542 9.8557C71.542 8.61619 72.5507 7.60754 73.7902 7.60754C75.0306 7.60754 76.0394 8.61619 76.0394 9.8557V80.6599ZM77.9156 56.916V33.5998C83.9173 34.0798 88.6548 39.1334 88.6548 45.2762C88.6548 51.3997 83.9173 56.4369 77.9156 56.916Z" fill="#1A2E35"/>
<path d="M28.033 34.386H11.5714C11.0528 34.386 10.6333 34.8056 10.6333 35.3241C10.6333 35.8425 11.0529 36.2622 11.5714 36.2622H28.033C28.5516 36.2622 28.971 35.8425 28.971 35.3241C28.971 34.8056 28.5514 34.386 28.033 34.386Z" fill="#1A2E35"/>
<path d="M28.033 39.354H11.5714C11.0528 39.354 10.6333 39.7736 10.6333 40.2921C10.6333 40.8105 11.0529 41.2302 11.5714 41.2302H28.033C28.5516 41.2302 28.971 40.8105 28.971 40.2921C28.971 39.7736 28.5514 39.354 28.033 39.354Z" fill="#1A2E35"/>
<path d="M28.033 44.3215H11.5714C11.0528 44.3215 10.6333 44.7412 10.6333 45.2596C10.6333 45.7781 11.0529 46.1977 11.5714 46.1977H28.033C28.5516 46.1977 28.971 45.7781 28.971 45.2596C28.971 44.7412 28.5514 44.3215 28.033 44.3215Z" fill="#1A2E35"/>
<path d="M28.033 49.2888H11.5714C11.0528 49.2888 10.6333 49.7084 10.6333 50.2269C10.6333 50.7455 11.0529 51.165 11.5714 51.165H28.033C28.5516 51.165 28.971 50.7453 28.971 50.2269C28.971 49.7084 28.5514 49.2888 28.033 49.2888Z" fill="#1A2E35"/>
<path d="M28.033 54.2563H11.5714C11.0528 54.2563 10.6333 54.676 10.6333 55.1944C10.6333 55.7131 11.0529 56.1325 11.5714 56.1325H28.033C28.5516 56.1325 28.971 55.7129 28.971 55.1944C28.971 54.6758 28.5514 54.2563 28.033 54.2563Z" fill="#1A2E35"/>
</svg>
